<?xml version="1.0" standalone="no"?>
<!DOCTYPE svg PUBLIC "-//W3C//DTD SVG 20010904//EN"
 "http://www.w3.org/TR/2001/REC-SVG-20010904/DTD/svg10.dtd">
<svg version="1.0" xmlns="http://www.w3.org/2000/svg"
 width="719.000000pt" height="719.000000pt" viewBox="0 0 719.000000 719.000000"
 preserveAspectRatio="xMidYMid meet">
<metadata>
Created by potrace 1.14, written by Peter Selinger 2001-2017
</metadata>
<g transform="translate(0.000000,719.000000) scale(0.100000,-0.100000)"
fill="#000000" stroke="none">
<path d="M0 3595 l0 -3595 1164 0 1164 0 7 32 c4 17 14 38 21 46 8 7 14 25 15
40 0 27 0 27 11 4 6 -12 17 -22 25 -22 7 0 16 -7 20 -16 4 -12 14 -14 40 -9
l35 6 -7 -40 -7 -41 50 0 c63 0 87 23 78 74 -10 50 -56 92 -56 50 0 -9 -6 -14
-12 -12 -7 3 -16 29 -20 59 -4 30 -11 77 -17 104 -14 70 -13 78 4 71 9 -3 15
0 15 9 0 21 67 31 88 13 13 -11 27 -13 58 -6 42 9 42 9 50 66 11 75 6 114 -14
129 -9 7 -33 28 -52 47 -36 35 -90 56 -90 35 0 -7 -9 -9 -21 -6 -18 5 -20 2
-18 -33 4 -48 -7 -63 -17 -24 -8 34 -32 64 -50 64 -6 0 -18 15 -24 32 -10 25
-14 29 -17 15 -3 -12 -10 -16 -24 -12 -13 4 -19 2 -19 -9 0 -11 -7 -15 -22
-12 -17 2 -25 12 -31 42 -4 21 -13 55 -18 74 -8 28 -7 41 5 65 9 17 16 49 16
72 0 33 -5 45 -26 61 l-27 19 32 22 c17 13 38 20 46 17 7 -2 16 0 19 7 6 14 0
-78 -9 -138 -8 -47 7 -93 32 -101 10 -3 25 -9 34 -14 9 -4 20 -5 26 -2 12 8
37 99 36 127 -3 32 -26 99 -40 113 -21 21 -15 31 19 34 26 2 33 9 43 38 20 60
39 50 83 -43 2 -4 -8 -2 -22 4 -20 9 -29 9 -41 -1 -17 -14 -20 -62 -5 -91 10
-18 12 -18 35 -3 20 13 28 14 40 4 12 -10 15 -10 15 3 0 15 61 75 96 95 19 11
20 33 9 142 -3 30 -6 63 -5 73 5 87 5 87 27 87 12 0 24 4 27 9 3 5 17 12 31
15 31 8 75 45 75 63 0 8 5 11 10 8 6 -3 10 -23 10 -43 0 -59 9 -80 38 -85 35
-7 52 8 52 47 0 34 -32 91 -44 79 -4 -4 -12 0 -17 10 -6 9 -17 17 -24 17 -8 0
-15 9 -15 20 0 12 -9 38 -20 60 -26 52 -25 68 5 76 14 3 34 17 44 30 10 13 27
24 36 24 15 0 17 8 10 74 -4 45 -3 76 3 80 14 9 20 -49 14 -131 -3 -51 -1 -73
7 -73 6 0 11 -6 11 -13 0 -7 9 -18 20 -25 18 -11 25 -10 49 8 16 11 34 20 40
20 18 0 91 -76 91 -95 0 -11 7 -15 23 -13 19 3 22 9 22 48 0 39 -4 47 -32 65
-17 11 -37 30 -44 43 -7 12 -18 21 -25 18 -8 -3 -15 9 -19 34 -7 40 -21 53
-88 81 -36 15 -52 43 -34 61 8 7 16 20 19 28 3 8 8 -2 12 -23 4 -21 11 -35 16
-32 4 3 20 1 34 -5 25 -9 26 -8 26 28 0 42 -24 84 -44 76 -17 -7 -27 51 -19
118 6 49 7 50 34 44 32 -6 59 1 59 15 0 5 -15 18 -32 29 l-33 20 28 0 c33 0
34 14 2 45 -27 28 -16 32 43 16 38 -11 91 2 60 14 -32 13 -19 22 25 18 45 -6
91 -32 107 -63 8 -15 6 -17 -13 -12 l-22 5 20 -23 c46 -54 69 -68 117 -74 3
-1 18 -11 32 -23 22 -19 24 -26 16 -48 -6 -15 -10 -33 -10 -40 0 -17 43 -65
58 -65 7 0 21 -18 32 -39 20 -40 80 -93 80 -71 0 15 -39 70 -65 92 -11 9 -17
20 -13 24 4 4 15 -2 25 -14 22 -25 73 -38 73 -19 0 15 -50 78 -124 155 -28 28
-46 52 -40 52 13 0 125 -90 197 -159 32 -31 65 -60 73 -64 19 -11 18 12 -1 37
-8 11 -15 28 -15 39 0 23 -26 50 -54 54 -33 5 -46 11 -46 23 0 6 5 8 10 5 19
-12 9 10 -15 34 -14 13 -25 28 -24 35 0 8 2 8 5 0 5 -13 44 -7 44 6 0 17 -55
73 -103 105 -36 25 -51 41 -53 61 -3 25 -1 26 32 21 18 -3 35 -3 35 1 1 4 2
19 3 35 2 24 -2 27 -28 27 l-31 0 38 25 c41 28 47 45 18 45 -11 0 -22 4 -26
10 -3 5 -12 7 -20 3 -9 -3 -15 1 -15 8 0 20 -103 62 -130 54 -13 -4 -39 -9
-59 -11 -20 -2 -56 -6 -80 -10 -62 -9 -44 8 33 31 53 16 66 24 66 41 0 11 6
26 12 33 11 11 10 13 -4 8 -9 -3 -19 -1 -21 6 -3 9 -11 9 -33 2 -34 -12 -181
0 -201 17 -7 6 -13 19 -13 30 0 17 4 19 33 12 17 -4 43 -7 57 -6 51 5 216 4
235 -1 11 -3 23 -6 27 -6 7 -1 48 -64 48 -74 0 -3 -8 -8 -17 -10 -11 -3 -7 -5
10 -6 28 -1 37 -15 14 -24 -6 -3 0 -6 15 -6 15 -1 30 -6 33 -11 3 -5 18 -10
32 -10 21 0 23 -3 14 -14 -9 -11 -6 -15 14 -20 24 -6 125 20 125 33 0 3 -21
17 -48 31 -31 17 -45 31 -42 40 8 25 2 122 -9 144 -25 49 -50 126 -42 130 4 3
18 -1 32 -8 125 -66 299 -156 304 -156 11 0 -17 24 -80 69 -78 56 -200 183
-202 210 -2 19 4 21 44 21 24 0 75 -8 111 -19 143 -40 220 -51 410 -58 176 -6
194 -5 205 11 9 13 27 18 61 18 45 0 47 1 42 23 -5 18 -1 24 17 29 13 3 33 14
45 24 l21 18 -23 38 c-12 20 -25 34 -29 30 -4 -4 -7 2 -7 14 0 11 -4 24 -10
27 -5 3 -10 15 -10 25 0 28 -21 70 -35 70 -7 0 -18 7 -25 15 -7 8 -28 17 -49
21 -20 4 -50 15 -67 25 -42 25 -72 24 -95 -4 -10 -12 -18 -16 -19 -9 0 6 -8
12 -17 12 -19 0 -125 61 -150 85 -17 18 -35 10 -31 -13 12 -76 -81 -22 -197
113 -19 22 -35 44 -35 48 0 5 -6 15 -14 22 -7 8 -16 32 -20 54 -3 23 -10 41
-15 41 -18 0 -17 50 2 136 10 49 21 109 24 134 2 25 11 59 19 76 10 22 12 55
9 110 -6 103 -24 166 -53 179 -12 5 -22 13 -22 18 0 5 -8 6 -18 3 -16 -5 -18
2 -21 65 -1 44 2 76 10 85 6 8 8 14 4 14 -5 0 -2 8 6 18 33 38 44 72 31 92 -7
11 -12 49 -12 85 l0 65 30 0 c17 0 30 -4 30 -8 0 -9 110 -17 189 -14 37 1 51
8 85 40 23 22 49 42 58 45 26 9 61 94 55 134 -5 30 -4 33 21 33 21 0 24 2 12
10 -8 5 -34 10 -57 10 -24 0 -43 5 -43 10 0 17 -58 11 -131 -15 -51 -17 -68
-20 -59 -10 10 12 10 15 0 15 -7 0 -10 6 -7 14 3 8 -2 25 -12 38 -29 38 -32
57 -12 79 22 24 89 59 113 59 9 0 20 5 24 11 3 6 17 9 30 6 14 -2 27 0 30 4 3
5 16 6 30 3 14 -4 24 -2 24 5 0 6 5 11 10 11 6 0 10 -7 10 -15 0 -11 13 -15
54 -15 84 0 98 40 19 56 -22 4 -29 11 -26 23 4 17 -13 21 -220 48 -38 5 -67
32 -67 64 0 30 -31 79 -70 110 -21 17 -41 40 -44 51 -6 25 30 134 55 167 11
13 19 33 19 45 0 21 29 110 30 92 0 -6 14 5 31 22 17 18 35 32 40 32 5 0 4 11
-3 25 l-11 24 -46 -40 c-30 -27 -47 -36 -50 -27 -2 7 -8 16 -14 19 -17 12 1
39 27 39 16 0 35 13 55 37 35 42 38 53 16 53 -23 0 -18 28 9 55 13 13 21 27
17 31 -3 4 -1 4 6 0 7 -4 25 -3 40 1 l28 7 -25 7 -25 7 27 1 c15 1 30 6 34 12
4 7 20 8 43 4 52 -10 193 -6 208 7 7 6 22 8 33 5 24 -6 146 9 164 21 6 4 20 8
31 9 54 6 85 17 85 29 0 8 10 14 26 14 14 0 32 7 40 15 9 8 26 15 39 15 13 0
27 5 30 10 4 6 -6 10 -21 10 -21 0 -25 3 -17 11 8 8 20 7 44 -5 18 -9 45 -16
61 -16 16 0 45 -7 65 -15 19 -8 51 -15 69 -15 23 0 34 -5 34 -15 0 -8 11 -17
24 -21 28 -7 66 -44 70 -67 1 -9 17 -33 35 -54 93 -109 143 -186 178 -274 20
-52 42 -101 48 -109 27 -34 47 -88 50 -135 2 -27 8 -97 14 -155 5 -57 8 -106
6 -109 -3 -2 -11 2 -20 9 -19 16 -45 6 -46 -17 0 -14 -2 -13 -10 5 -5 14 -14
20 -20 16 -7 -4 -26 -8 -43 -9 -56 -4 -115 -25 -140 -50 -13 -13 -27 -21 -32
-17 -4 4 -4 -1 -1 -11 4 -10 7 -23 7 -28 0 -5 12 -2 26 7 19 13 28 14 33 5 6
-9 19 -7 52 8 58 27 138 27 188 1 21 -10 41 -17 44 -14 15 15 28 -47 30 -139
1 -71 6 -106 16 -117 10 -10 10 -15 2 -18 -9 -3 -9 -7 0 -18 6 -8 9 -26 6 -40
-3 -17 5 -47 24 -85 16 -32 29 -65 29 -74 0 -8 7 -18 15 -21 8 -4 15 -16 15
-28 0 -12 9 -41 20 -64 11 -22 20 -45 20 -50 0 -5 9 -21 20 -35 19 -24 19 -27
4 -35 -25 -14 -10 -75 26 -112 46 -47 34 -85 -13 -43 -18 17 -19 17 -12 -17 8
-47 8 -65 0 -136 -5 -40 -4 -68 4 -82 8 -16 8 -22 1 -22 -6 0 -8 -5 -5 -10 5
-8 -48 -194 -76 -265 -4 -11 -15 -45 -25 -75 -18 -59 -86 -193 -113 -223 -9
-11 -27 -38 -41 -62 -34 -58 -224 -312 -268 -358 l-36 -37 34 0 c45 0 34 -9
-15 -11 -22 -1 -66 -16 -97 -33 -57 -30 -58 -32 -60 -76 -1 -25 -3 -61 -5 -80
-2 -19 -5 -53 -7 -75 -2 -22 -11 -96 -20 -164 -11 -77 -15 -155 -12 -205 3
-45 8 -159 12 -253 5 -151 4 -173 -9 -173 -8 0 -17 4 -19 8 -1 5 -18 12 -35
15 -29 6 -34 3 -39 -17 -6 -24 -55 -44 -62 -25 -2 5 -14 9 -27 9 -13 0 -26 4
-29 9 -3 5 -21 3 -41 -3 -43 -15 -55 -26 -29 -26 22 0 44 -18 44 -36 0 -7 -8
-10 -20 -7 -11 3 -20 9 -20 14 0 14 -104 11 -118 -3 -16 -16 -15 -28 2 -28 7
0 27 -7 42 -15 16 -8 37 -15 46 -15 9 0 19 -4 22 -9 3 -4 -18 -11 -46 -14 -56
-7 -69 -14 -49 -27 11 -6 8 -9 -9 -12 -30 -4 -37 -26 -13 -36 43 -16 113 -68
113 -82 0 -24 -44 -19 -72 8 -29 26 -38 28 -38 5 0 -23 -13 -7 -31 37 -7 19
-26 48 -41 64 -33 35 -29 46 8 22 37 -25 44 -10 9 20 -20 16 -38 23 -56 20
-16 -3 -40 4 -65 19 -21 14 -47 25 -56 25 -15 0 -15 -3 -2 -27 17 -34 18 -51
2 -35 -32 32 -23 4 23 -68 54 -85 90 -112 43 -32 -18 31 -22 42 -10 33 25 -20
48 -70 42 -87 -3 -8 -2 -13 3 -10 5 3 25 -13 45 -37 20 -23 44 -50 53 -59 22
-23 11 -32 -24 -21 -17 6 -29 18 -31 30 -4 24 -49 70 -59 59 -4 -4 -2 -16 5
-26 21 -35 13 -35 -23 0 -32 31 -50 70 -25 55 6 -3 10 -1 10 4 0 6 -4 11 -10
11 -5 0 -10 10 -10 23 0 13 -13 36 -30 52 -40 38 -47 28 -10 -14 17 -18 30
-34 30 -35 0 -5 -91 42 -105 54 -8 6 -17 25 -20 41 -6 25 -38 58 -83 83 -33
19 48 -115 83 -138 26 -17 92 -108 85 -116 -3 -2 18 -20 47 -40 35 -24 56 -47
67 -74 l16 -39 -23 20 c-12 10 -35 25 -50 31 -15 7 -36 26 -45 43 -23 42 -52
79 -60 78 -20 -3 -32 2 -32 14 0 17 -58 73 -66 64 -4 -4 11 -26 32 -50 80 -89
124 -146 136 -174 7 -15 26 -45 42 -65 32 -41 30 -56 -3 -38 -26 14 -27 5 -1
-22 11 -12 20 -28 20 -35 0 -7 4 -13 9 -13 5 0 18 -21 30 -46 19 -39 25 -44
44 -38 12 3 19 3 15 -1 -11 -11 30 -64 66 -86 37 -23 46 -24 46 -4 0 26 -32
55 -55 49 -13 -3 -27 1 -35 11 -12 15 -12 19 5 31 18 13 18 14 0 34 -10 11
-24 20 -31 20 -24 0 -75 55 -68 73 6 16 9 16 38 -2 17 -11 36 -21 41 -22 16
-4 82 -92 86 -114 3 -12 18 -24 39 -31 26 -9 35 -17 36 -35 0 -13 2 -31 3 -39
2 -15 101 -131 101 -118 0 20 -21 58 -29 53 -5 -3 -13 -1 -16 5 -10 17 -15 70
-6 70 11 0 100 -152 110 -188 5 -16 14 -39 20 -50 10 -18 8 -21 -9 -19 -11 1
-19 6 -16 13 6 15 -31 45 -48 38 -8 -3 -17 2 -20 14 -4 11 -38 35 -84 58 -42
21 -86 46 -96 56 -11 10 -23 18 -26 18 -4 0 -15 16 -26 35 -10 19 -24 37 -31
39 -20 8 -16 -9 7 -29 11 -10 20 -23 20 -28 0 -5 18 -29 39 -52 22 -24 47 -65
57 -93 10 -27 26 -54 35 -60 16 -10 17 -7 13 26 l-4 37 15 -40 c9 -22 14 -54
11 -71 -3 -26 1 -37 27 -62 18 -16 54 -37 81 -46 62 -20 59 -20 53 6 -8 29
105 -82 129 -128 16 -28 16 -36 5 -58 -18 -32 -8 -111 17 -146 10 -14 33 -33
52 -42 39 -20 59 -38 43 -38 -13 0 -11 -33 6 -73 6 -15 14 -39 17 -53 3 -13
16 -29 28 -36 11 -6 31 -20 44 -31 l22 -20 0 44 c0 48 -12 75 -28 65 -12 -7
-60 29 -51 38 8 9 62 -12 71 -27 4 -7 12 -13 18 -13 5 -1 14 -2 19 -3 5 0 14
-14 21 -30 13 -34 6 -84 -16 -102 -8 -6 -14 -17 -14 -24 0 -7 -7 -18 -15 -25
-8 -7 -15 -19 -15 -26 0 -11 26 -14 125 -14 l125 0 -20 40 c-22 44 -25 60 -10
60 6 0 10 -8 10 -17 0 -30 43 -83 68 -83 29 0 28 11 -3 44 -14 15 -25 31 -25
36 0 15 -53 87 -73 100 -11 6 -22 8 -25 5 -4 -4 1 -11 11 -16 25 -14 22 -41
-5 -37 -18 2 -22 11 -25 52 -5 51 -1 52 40 18 26 -23 30 -9 6 19 -12 13 -32
37 -45 52 -13 16 -28 26 -34 22 -5 -3 -8 0 -5 7 3 8 -11 20 -36 30 -24 10 -43
26 -46 38 -3 11 -9 20 -14 20 -5 0 -9 7 -9 15 0 9 -7 18 -15 21 -8 4 -15 10
-15 16 0 5 4 7 9 4 4 -3 6 5 4 19 -3 13 -12 26 -20 30 -23 8 -26 0 -9 -18 9
-9 13 -23 9 -33 -3 -10 0 -22 8 -28 21 -17 41 -56 28 -56 -25 0 -45 21 -47 50
-3 36 -28 90 -50 106 -8 6 -15 31 -17 63 -2 30 -10 60 -19 70 -9 10 -13 21 -9
25 4 4 1 11 -7 16 -11 7 -11 10 -2 10 19 0 164 -148 157 -160 -3 -5 26 -47 64
-91 39 -45 71 -88 71 -95 0 -8 15 -20 33 -29 74 -34 187 -132 187 -162 0 -15
28 -43 43 -42 9 0 8 2 0 6 -7 2 -13 9 -13 15 0 6 6 5 15 -2 9 -7 13 -15 11
-17 -2 -3 4 -13 14 -23 11 -11 24 -37 30 -59 11 -40 11 -41 57 -41 l47 0 -27
28 c-15 15 -27 34 -27 42 0 7 16 -5 36 -28 19 -23 44 -42 54 -42 16 0 14 7
-14 63 -55 105 -66 120 -134 172 -76 58 -138 116 -140 130 0 5 -6 11 -13 14
-7 2 -9 -1 -4 -9 5 -9 4 -11 -4 -6 -6 4 -9 11 -6 16 9 15 -48 103 -86 129 -21
14 -40 36 -43 48 -3 12 -26 39 -51 61 -25 22 -45 48 -45 58 0 17 -45 94 -54
94 -2 0 -2 -10 2 -22 5 -20 4 -21 -11 -10 -9 8 -19 21 -22 31 -3 9 -18 25 -35
34 -38 23 -82 80 -85 112 -4 31 -100 119 -139 126 -27 5 -106 104 -106 132 0
27 -58 87 -83 87 -11 0 -27 22 -46 63 -27 62 -61 97 -107 111 -25 8 -60 43
-51 52 16 16 63 -13 139 -86 46 -44 74 -77 63 -73 -21 7 -22 7 24 -47 2 -3 1
3 -3 14 -3 10 47 -35 111 -99 65 -65 118 -120 118 -124 0 -15 47 -81 55 -76 4
3 13 -2 20 -10 11 -13 10 -15 -6 -10 -10 4 1 -11 26 -32 99 -85 237 -239 219
-245 -7 -2 14 -26 46 -53 80 -69 133 -122 183 -182 45 -56 51 -69 26 -59 -17
6 28 -55 65 -88 36 -33 24 3 -14 41 -20 20 -34 37 -32 39 7 7 103 -92 126
-129 12 -20 37 -49 55 -64 41 -37 56 -59 33 -50 -23 9 -22 2 14 -49 20 -30 37
-44 49 -42 20 3 60 -28 60 -49 0 -8 11 -13 30 -13 28 0 29 1 19 27 -6 15 -16
34 -22 42 -10 11 -9 13 3 9 8 -2 19 -13 24 -24 16 -36 62 -54 136 -54 66 0 68
1 63 22 -3 13 -10 29 -16 36 -15 19 7 15 34 -7 34 -26 85 -51 106 -51 13 0 14
3 5 12 -7 7 -12 25 -12 40 0 22 -8 33 -33 48 -19 11 -39 31 -45 45 -12 26 -36
33 -47 15 -4 -6 1 -24 9 -42 19 -38 19 -38 4 -38 -7 0 -22 17 -33 37 -26 47
-48 56 -40 16 5 -25 4 -26 -7 -9 -37 54 -62 76 -85 76 -20 0 -23 4 -18 19 6
21 -19 41 -52 41 -29 0 -81 57 -118 130 -25 50 -42 70 -73 88 -47 26 -142 126
-142 149 0 26 -61 114 -85 123 -21 8 -85 91 -85 109 0 12 -60 62 -99 83 -21
11 -33 27 -37 47 -4 16 -17 40 -30 52 -25 23 -32 49 -14 49 6 0 8 11 4 25 -6
26 5 31 58 27 10 -1 18 7 20 21 3 20 8 17 53 -30 28 -29 58 -53 67 -53 20 0
35 -18 44 -55 12 -49 72 -167 104 -205 29 -35 29 -35 31 -10 1 14 1 33 0 43
-1 9 3 17 8 17 6 0 11 14 11 30 0 42 15 37 33 -9 19 -46 33 -57 52 -41 14 12
35 6 35 -10 0 -5 -7 -7 -15 -4 -24 10 -18 -41 10 -86 l25 -39 30 30 c16 17 30
41 30 54 0 33 20 36 46 6 21 -25 23 -25 42 -8 19 17 20 17 25 -3 3 -11 18 -27
35 -37 16 -9 42 -36 57 -60 24 -38 40 -49 69 -44 4 1 14 -3 20 -9 7 -5 16 -7
19 -4 3 4 14 -10 23 -30 15 -30 16 -39 5 -60 -24 -44 2 -117 51 -142 17 -9 40
-25 51 -35 12 -10 24 -19 28 -19 4 0 11 24 14 53 6 44 3 59 -16 92 -25 44 -67
84 -88 85 -11 0 -11 3 -1 15 16 19 18 91 4 105 -15 15 -44 1 -44 -20 0 -28
-19 -34 -41 -14 -23 20 -25 54 -4 54 19 0 19 13 0 50 -21 40 -47 53 -80 40
-21 -8 -26 -15 -22 -31 3 -13 1 -19 -6 -16 -7 2 -12 9 -12 14 0 24 -46 72 -80
83 -19 6 -35 18 -35 26 0 11 10 8 40 -11 22 -14 53 -25 69 -25 49 0 63 25 52
92 -2 14 -135 117 -143 112 -5 -4 -20 4 -34 17 -13 12 -24 18 -24 13 0 -5 -5
-1 -11 8 -12 21 -122 84 -163 94 -30 7 -105 54 -123 76 -21 26 -83 151 -78
156 6 6 65 -55 65 -67 0 -4 11 -18 25 -31 14 -13 25 -28 25 -33 0 -13 53 -67
66 -67 17 0 179 -81 182 -91 2 -5 8 -9 12 -9 5 0 21 -12 35 -26 20 -20 29 -24
38 -15 17 17 40 13 69 -14 15 -14 32 -25 38 -25 16 0 12 42 -7 62 -14 15 -15
21 -4 27 19 12 -3 24 -51 28 -28 3 -42 -1 -55 -17 -10 -11 -23 -20 -30 -20
-21 0 -15 29 10 41 12 6 31 22 43 35 20 24 20 24 66 7 l46 -17 32 28 32 27 24
-33 c13 -17 24 -35 24 -39 0 -4 13 -11 28 -17 39 -13 89 -92 97 -151 4 -25 15
-57 24 -71 9 -14 23 -39 30 -56 7 -17 30 -44 52 -60 21 -16 42 -39 45 -52 3
-12 24 -36 45 -53 21 -17 39 -39 39 -49 0 -21 46 -80 62 -80 13 0 118 -69 118
-77 0 -4 -8 -15 -17 -25 -13 -15 -15 -23 -7 -36 16 -25 41 -26 47 -2 5 21 31
25 73 14 29 -8 49 -51 33 -71 -17 -19 -1 -32 43 -35 41 -2 48 1 52 29 4 20 31
19 53 -2 7 -8 22 -16 32 -20 11 -3 22 -13 25 -21 3 -8 11 -12 16 -9 6 4 16 3
23 -2 7 -5 38 -7 70 -5 l57 4 0 3434 0 3434 -3595 0 -3595 0 0 -3595z m4985
3121 c19 -8 35 -17 35 -20 0 -7 -44 6 -65 21 -25 17 -13 17 30 -1z m-2002 -53
c-7 -2 -19 -2 -25 0 -7 3 -2 5 12 5 14 0 19 -2 13 -5z m2197 -158 c32 -18 25
-18 -25 0 -22 8 -31 14 -20 14 11 0 31 -6 45 -14z m-2380 1 c0 -11 -19 -15
-25 -6 -3 5 1 10 9 10 9 0 16 -2 16 -4z m2350 -36 c0 -5 -7 -10 -16 -10 -8 0
-12 5 -9 10 3 6 10 10 16 10 5 0 9 -4 9 -10z m60 0 c0 -5 -8 -10 -17 -10 -15
0 -16 2 -3 10 19 12 20 12 20 0z m-2 -29 c-2 -4 8 -18 22 -29 21 -18 22 -21 8
-22 -22 0 -61 37 -53 50 8 12 26 13 23 1z m-223 -162 c10 -15 -2 -24 -17 -12
-7 6 -22 13 -33 16 -13 3 -9 5 12 6 17 0 35 -4 38 -10z m-2408 -5 c-3 -3 -22
-10 -42 -14 -21 -5 -34 -5 -29 0 8 7 28 13 68 19 5 0 7 -2 3 -5z m2383 -14 c0
-5 -5 -10 -11 -10 -5 0 -7 5 -4 10 3 6 8 10 11 10 2 0 4 -4 4 -10z m416 -19
c-3 -5 1 -14 9 -21 8 -7 15 -17 15 -23 0 -6 -10 -2 -21 10 -18 18 -20 43 -3
43 3 0 3 -4 0 -9z m54 -113 c17 -12 30 -31 30 -42 -1 -20 -2 -20 -14 -4 -7 10
-16 14 -20 10 -4 -4 -12 1 -17 10 -6 11 -16 15 -27 11 -14 -6 -15 -4 -5 9 7 8
10 18 6 21 -16 17 21 5 47 -15z m-30 -98 c0 -5 -7 -10 -16 -10 -8 0 -12 5 -9
10 3 6 10 10 16 10 5 0 9 -4 9 -10z m90 -26 c0 -14 -4 -22 -10 -19 -6 3 -7 -1
-4 -9 3 -9 1 -16 -5 -16 -6 0 -11 10 -11 23 0 13 -6 29 -12 36 -11 11 -10 13
5 8 9 -4 17 -2 17 4 0 6 5 7 10 4 6 -3 10 -17 10 -31z m-3043 -4 c-10 -25 -13
-27 -18 -13 -8 23 -1 43 16 43 11 0 11 -6 2 -30z m3079 -35 c0 -19 -2 -35 -5
-35 -11 0 -26 45 -23 69 5 35 26 9 28 -34z m-88 33 c7 -7 12 -20 12 -29 0 -10
9 -21 20 -24 20 -6 29 -45 10 -45 -7 0 -7 -6 0 -19 5 -11 10 -25 10 -32 0 -19
-26 10 -35 39 -5 16 -2 22 10 22 9 0 15 6 12 13 -2 6 -13 11 -24 9 -22 -3 -63
39 -63 64 0 17 32 18 48 2z m-3011 -95 c-9 -9 -19 -14 -23 -11 -10 10 6 28 24
28 15 0 15 -1 -1 -17z m-10 -48 c0 -8 -4 -15 -8 -15 -5 0 -6 -7 -3 -15 4 -8 1
-15 -5 -15 -12 0 -14 20 -5 44 8 20 21 21 21 1z m-17 -116 c0 -5 -7 -9 -15 -9
-15 0 -20 12 -9 23 8 8 24 -1 24 -14z m-25 -67 c-5 -13 -8 -14 -15 -3 -5 9 -3
22 3 33 10 16 12 16 15 3 2 -9 1 -24 -3 -33z m-20 -52 c-8 -16 -15 -33 -14
-37 4 -21 -2 -33 -16 -33 -10 0 -15 11 -15 35 0 21 -5 35 -12 35 -9 0 -9 3 0
12 9 9 15 9 24 0 16 -16 28 -15 28 3 0 8 5 15 10 15 6 0 4 -13 -5 -30z m3205
-101 c0 -5 -4 -9 -10 -9 -5 0 -10 7 -10 16 0 8 5 12 10 9 6 -3 10 -10 10 -16z
m-3175 -41 c-4 -36 -5 -38 -14 -38 -10 0 -21 47 -13 55 13 13 29 3 27 -17z
m3123 -88 c10 -26 9 -30 -8 -30 -25 0 -33 15 -26 46 8 30 20 24 34 -16z
m-3283 -23 c-17 -26 -74 -71 -81 -64 -4 4 85 87 94 87 1 0 -4 -10 -13 -23z
m185 3 c0 -5 -7 -10 -15 -10 -8 0 -15 5 -15 10 0 6 7 10 15 10 8 0 15 -4 15
-10z m-16 -158 c-6 -4 -14 -17 -18 -29 -8 -27 -24 -30 -33 -7 -3 8 -12 13 -19
10 -20 -8 -17 4 4 20 9 7 31 13 47 14 17 0 25 -4 19 -8z m-52 -94 c-7 -7 -12
-8 -12 -2 0 14 12 26 19 19 2 -3 -1 -11 -7 -17z m-9 -54 c9 -10 -4 -34 -18
-34 -17 0 -28 17 -20 30 7 11 28 13 38 4z m-33 -49 c0 -16 -27 -32 -37 -21 -7
7 16 36 28 36 5 0 9 -7 9 -15z m30 -62 c-1 -18 -28 -44 -35 -33 -4 6 -1 17 5
25 13 16 30 20 30 8z m1835 -46 c0 -26 -20 -25 -23 2 -3 16 1 22 10 19 7 -3
13 -12 13 -21z m-513 -74 c38 -17 39 -18 33 -58 -12 -73 -74 -97 -105 -40 -17
29 -16 33 2 73 11 23 23 42 26 42 3 0 23 -8 44 -17z m-1272 -63 c0 -11 -4 -20
-10 -20 -5 0 -10 9 -10 20 0 11 5 20 10 20 6 0 10 -9 10 -20z m40 -35 c0 -8 5
-15 11 -15 7 0 8 -16 3 -46 -11 -72 18 -182 71 -274 8 -14 15 -33 15 -42 0 -9
4 -19 9 -22 5 -4 19 -36 31 -74 12 -37 35 -93 51 -125 32 -63 180 -264 210
-285 11 -7 19 -22 19 -33 0 -10 4 -19 9 -19 10 0 35 -58 34 -77 0 -7 5 -13 13
-13 8 0 14 -5 14 -11 0 -6 20 -30 45 -54 47 -44 51 -68 14 -78 -16 -4 -18 -9
-9 -31 9 -25 8 -26 -30 -26 -42 0 -85 32 -76 57 3 7 1 15 -5 19 -6 3 -8 12 -5
19 3 8 -7 15 -26 19 -25 5 -28 9 -19 20 8 10 23 13 47 9 22 -4 34 -2 34 6 0 6
-4 11 -10 11 -5 0 -10 8 -10 18 0 10 -11 29 -24 41 -21 19 -30 22 -70 16 -39
-6 -46 -5 -46 9 0 24 -51 66 -72 60 -13 -4 -18 0 -18 16 0 11 -11 38 -25 58
-32 48 -64 139 -71 200 -9 81 -13 89 -49 111 -30 17 -35 26 -35 57 0 20 -7 49
-17 64 -13 23 -14 37 -6 81 11 53 8 79 -8 79 -8 0 -14 -30 -10 -52 0 -5 -3 -8
-8 -8 -21 0 -24 56 -20 290 1 34 39 58 39 25z m-190 -915 c0 -11 -7 -20 -15
-20 -8 0 -15 9 -15 20 0 11 7 20 15 20 8 0 15 -9 15 -20z m325 -101 c15 -14
-7 -10 -35 7 l-25 15 25 -7 c14 -3 29 -10 35 -15z m167 -45 c12 -14 30 -30 42
-34 19 -8 19 -9 -7 -9 -33 -1 -97 24 -97 38 0 8 27 30 39 31 2 0 12 -12 23
-26z m-6 -76 c15 -7 40 -25 56 -40 16 -15 36 -24 44 -21 9 3 14 -1 14 -12 0
-9 -9 -19 -20 -22 -21 -6 -21 -6 -2 -24 11 -9 32 -19 48 -21 23 -2 28 -7 26
-23 -2 -11 -11 -28 -19 -37 -9 -10 -13 -18 -9 -18 4 0 -1 -14 -11 -31 -16 -27
-23 -30 -55 -27 -21 2 -38 0 -38 -4 0 -5 -7 -8 -15 -8 -21 0 -19 13 5 35 26
24 25 33 -5 47 -13 6 -27 18 -30 27 -3 9 -21 27 -41 40 -26 16 -33 25 -24 31
7 4 10 15 7 24 -5 12 3 9 27 -9 26 -20 41 -24 61 -19 24 6 26 4 21 -13 -7 -21
16 -39 35 -27 16 10 10 24 -19 42 -61 37 -103 82 -97 102 7 24 7 23 41 8z
m104 -23 c0 -8 -9 -15 -20 -15 -22 0 -27 15 -7 23 21 9 27 7 27 -8z m-191
-124 c9 -6 10 -10 2 -16 -15 -8 -41 1 -41 15 0 12 20 13 39 1z m-69 -21 c6
-12 22 -25 36 -30 28 -11 31 -28 7 -37 -10 -4 -23 2 -34 15 -9 12 -24 22 -33
22 -21 0 -30 18 -16 35 17 20 27 19 40 -5z m169 -72 c-8 -14 -14 -16 -29 -8
-29 15 -24 27 9 27 26 0 29 -3 20 -19z m24 -116 c39 -35 -4 -63 -57 -37 -18
10 -33 12 -40 6 -18 -15 -33 1 -31 34 5 71 0 68 58 39 28 -14 60 -33 70 -42z
m-173 -42 c0 -5 -4 -10 -10 -10 -5 0 -10 5 -10 10 0 6 5 10 10 10 6 0 10 -4
10 -10z m-154 -11 c8 -14 -11 -33 -25 -25 -11 7 -4 36 9 36 5 0 12 -5 16 -11z
m277 -29 c20 -1 21 -1 4 -11 -21 -12 -51 6 -40 24 5 8 8 7 11 -1 2 -7 13 -12
25 -12z m-43 -67 c0 -2 9 -3 19 -3 25 0 36 -17 22 -34 -13 -16 -66 -9 -82 10
-6 8 -22 14 -35 14 -12 0 -30 8 -40 18 -16 15 -16 17 -2 20 9 2 18 12 21 22 3
13 16 20 38 22 31 3 35 0 46 -32 7 -19 13 -36 13 -37z m-240 -15 c0 -12 -14
-10 -35 5 -10 8 -15 19 -11 26 6 9 13 8 27 -5 10 -9 19 -21 19 -26z m2813 -3
c-3 -9 -8 -14 -10 -11 -3 3 -2 9 2 15 9 16 15 13 8 -4z m-2630 -52 c18 -42 31
-52 50 -41 11 6 17 5 17 -2 0 -6 -7 -13 -15 -16 -8 -4 -15 -15 -15 -25 0 -11
-7 -22 -16 -26 -8 -3 -13 -12 -10 -20 9 -22 -23 -28 -39 -7 -19 25 -19 70 0
78 19 7 20 26 1 26 -8 0 -28 8 -44 17 l-31 18 27 11 c43 20 61 16 75 -13z
m-114 -75 c14 5 14 4 2 -11 -10 -13 -17 -15 -27 -6 -8 6 -14 16 -14 22 0 8 3
8 11 0 6 -6 19 -9 28 -5z m-119 -18 c0 -5 -5 -10 -11 -10 -5 0 -7 5 -4 10 3 6
8 10 11 10 2 0 4 -4 4 -10z m58 -138 c3 -9 -3 -13 -19 -10 -12 1 -24 9 -27 16
-3 9 3 13 19 10 12 -1 24 -9 27 -16z m120 -8 c-2 -11 -16 -18 -46 -20 -40 -4
-42 -3 -30 16 16 26 81 29 76 4z m-8 -54 c0 -6 7 -10 16 -8 10 2 19 -3 21 -9
6 -16 -26 -30 -36 -16 -3 5 -14 12 -24 16 -10 4 -15 11 -12 17 8 13 35 13 35
0z m605 -249 c58 -22 64 -35 18 -39 -25 -2 -33 1 -33 12 0 9 -6 16 -12 16 -7
1 -26 7 -43 15 -29 13 -29 13 -5 14 14 1 48 -8 75 -18z m-88 -47 c13 -4 20
-10 17 -15 -3 -5 2 -9 10 -9 26 0 18 -14 -14 -28 -26 -12 -32 -11 -46 2 -8 9
-23 16 -31 16 -14 0 -14 3 3 19 21 22 28 24 61 15z m73 -8 c0 -11 -19 -15 -25
-6 -3 5 1 10 9 10 9 0 16 -2 16 -4z m188 -43 c16 -10 21 -20 17 -33 -3 -11 -1
-28 5 -40 9 -16 8 -20 -5 -20 -8 0 -15 4 -15 9 0 6 -14 18 -30 28 -17 10 -28
23 -25 31 2 7 -1 12 -8 10 -14 -3 -57 23 -57 34 0 12 93 -3 118 -19z m-403 -3
c3 -5 -1 -10 -9 -10 -9 0 -16 5 -16 10 0 6 4 10 9 10 6 0 13 -4 16 -10z m-21
-19 c3 -4 3 -11 0 -14 -8 -8 -34 3 -34 14 0 11 27 12 34 0z m83 -6 c12 -4 14
-8 5 -17 -9 -9 -17 -7 -35 10 -23 24 -23 24 30 7z m28 -45 c3 -5 1 -10 -4 -10
-6 0 -11 5 -11 10 0 6 2 10 4 10 3 0 8 -4 11 -10z m474 -26 c16 -12 20 -19 12
-27 -19 -19 -12 -37 27 -73 l37 -36 -40 7 c-22 4 -47 13 -56 21 -8 8 -18 14
-22 14 -14 0 -59 54 -48 58 6 2 9 8 6 13 -3 4 6 11 20 15 14 3 25 10 25 15 0
13 13 11 39 -7z m-23 -151 c-6 -7 -56 27 -56 39 0 5 14 0 31 -12 16 -12 28
-24 25 -27z m-729 -120 c-3 -10 -5 -2 -5 17 0 19 2 27 5 18 2 -10 2 -26 0 -35z
m63 33 c0 -8 -4 -18 -10 -21 -5 -3 -10 3 -10 14 0 12 5 21 10 21 6 0 10 -6 10
-14z m-183 -91 c17 -53 16 -63 -2 -39 -13 18 -14 15 -16 -31 l-1 -50 -8 51
c-4 28 -12 60 -19 72 -16 31 -14 40 12 38 17 -1 25 -11 34 -41z m-267 -59 c0
-5 -7 -1 -15 10 -8 10 -14 24 -14 29 0 6 6 1 14 -9 8 -11 15 -24 15 -30z m38
12 c12 -33 9 -49 -7 -32 -14 13 -25 64 -14 64 5 0 14 -14 21 -32z m2992 0 c0
-19 -2 -20 -10 -8 -13 19 -13 30 0 30 6 0 10 -10 10 -22z m-2900 -44 c0 -8 -4
-12 -10 -9 -5 3 -10 13 -10 21 0 8 5 12 10 9 6 -3 10 -13 10 -21z m426 -14 c8
0 14 -7 14 -16 0 -12 -3 -14 -12 -6 -13 10 -19 12 -38 12 -5 0 -10 12 -9 28
l0 27 16 -22 c8 -13 22 -23 29 -23z m-618 5 c14 -31 15 -45 4 -45 -9 0 -32 44
-32 60 0 19 17 10 28 -15z m168 -62 c-6 -6 -36 64 -35 81 0 6 10 -9 21 -32 11
-24 17 -46 14 -49z m2344 84 c0 -1 -4 -17 -9 -35 -6 -21 -6 -32 1 -32 5 0 -2
-14 -16 -31 -14 -17 -26 -39 -26 -49 0 -10 -5 -22 -11 -25 -21 -13 -21 5 0 38
26 42 27 57 4 55 -10 -1 -28 0 -41 0 -22 2 -22 3 -8 24 16 23 71 57 94 58 6 0
12 -1 12 -3z m-2528 -90 c5 -22 18 -52 28 -68 24 -32 26 -53 5 -45 -9 3 -15 0
-15 -9 0 -8 -6 -15 -14 -15 -8 0 -16 -8 -18 -17 -3 -14 -11 -8 -32 24 -20 30
-29 59 -33 103 -6 61 -5 62 15 51 32 -17 39 -13 35 22 -4 28 -3 30 8 13 6 -11
16 -37 21 -59z m3213 63 c3 -5 -3 -10 -15 -10 -12 0 -18 5 -15 10 3 6 10 10
15 10 5 0 12 -4 15 -10z m-1033 -75 c3 -14 3 -27 0 -29 -7 -8 -55 20 -77 44
-20 23 -20 23 0 17 11 -4 27 -2 35 3 18 11 36 -3 42 -35z m1185 39 c-3 -3 -12
-4 -19 -1 -8 3 -5 6 6 6 11 1 17 -2 13 -5z m-49 -36 c-2 -6 -10 -14 -16 -16
-7 -2 -10 2 -6 12 7 18 28 22 22 4z m-968 -7 c0 -5 10 -11 22 -15 21 -5 21 -7
7 -21 -17 -18 -53 -10 -45 10 2 7 -1 18 -7 24 -8 8 -7 11 6 11 9 0 17 -4 17
-9z m590 -12 c0 -6 -4 -7 -10 -4 -5 3 -10 11 -10 16 0 6 5 7 10 4 6 -3 10 -11
10 -16z m520 -9 c24 -13 22 -87 -3 -102 -9 -5 -17 -18 -17 -28 0 -16 7 -20 30
-20 44 0 36 -29 -15 -56 -33 -17 -45 -18 -45 -3 0 6 -9 18 -20 27 -19 16 -19
19 -3 67 9 28 24 59 34 70 13 15 15 25 8 38 -11 20 1 23 31 7z m-2910 -80 c5
-54 0 -77 -16 -77 -13 0 -15 8 -10 45 3 25 6 54 6 66 1 17 2 18 9 6 5 -8 10
-26 11 -40z m-856 -31 c-16 -23 -35 -44 -42 -45 -7 -1 -8 0 -2 3 5 2 10 9 10
14 0 13 53 79 58 74 2 -2 -9 -23 -24 -46z m2736 20 c0 -6 -4 -7 -10 -4 -5 3
-10 11 -10 16 0 6 5 7 10 4 6 -3 10 -11 10 -16z m-119 -16 c30 -18 50 -49 25
-40 -27 11 -4 -32 40 -73 41 -38 84 -53 84 -29 0 6 8 9 18 7 9 -2 17 -11 17
-19 0 -9 6 -23 14 -32 21 -26 4 -39 -30 -22 -16 9 -29 11 -29 6 0 -15 34 -51
60 -64 14 -7 26 -21 28 -32 5 -23 30 -55 44 -55 5 0 8 5 6 12 -2 6 4 20 14 30
10 10 16 24 12 29 -3 6 5 3 20 -6 14 -9 36 -33 48 -54 24 -39 42 -53 72 -58
28 -5 101 -53 116 -76 7 -11 13 -31 15 -43 1 -13 13 -38 27 -56 35 -47 44 -63
30 -54 -7 4 -12 4 -12 1 0 -18 23 -45 53 -63 21 -12 43 -38 57 -66 14 -30 38
-57 68 -78 67 -46 119 -105 126 -144 5 -24 26 -50 79 -99 l72 -66 -51 25 c-61
31 -140 107 -161 156 -22 53 -58 95 -126 152 -34 28 -63 59 -63 67 -1 9 -2 22
-3 29 -1 6 -9 12 -18 11 -11 0 -13 -3 -5 -6 6 -2 12 -9 12 -15 0 -5 -27 13
-60 42 -62 54 -76 82 -39 77 31 -3 35 21 6 32 -14 5 -46 35 -73 66 -27 31 -55
54 -64 53 -22 -5 -51 26 -54 56 -4 33 -43 77 -62 69 -11 -4 -11 -11 2 -41 8
-20 21 -44 29 -52 20 -22 19 -34 -1 -26 -14 6 -15 4 -4 -9 9 -11 15 -13 20 -5
4 7 38 -24 85 -80 43 -50 87 -96 97 -101 10 -5 18 -14 18 -20 0 -6 -5 -7 -11
-3 -8 4 -8 0 0 -15 8 -14 8 -21 1 -21 -5 0 -10 4 -10 8 0 5 -16 17 -35 28 -23
12 -33 24 -30 34 6 20 -51 90 -73 90 -21 0 -161 149 -162 172 0 25 -48 77 -89
96 -26 13 -37 25 -41 47 -3 19 -16 37 -37 50 -18 11 -35 29 -39 40 -3 11 -21
41 -39 66 -51 72 -59 89 -39 89 9 0 29 -8 45 -17z m774 -49 c37 -36 65 -68 62
-71 -8 -7 -55 29 -62 47 -3 8 -18 24 -34 35 -24 16 -49 55 -36 55 2 0 33 -30
70 -66z m-695 12 c0 -8 -4 -18 -10 -21 -5 -3 -10 3 -10 14 0 12 5 21 10 21 6
0 10 -6 10 -14z m1177 -2 c3 -10 -4 -26 -21 -42 l-26 -27 0 23 c0 48 33 81 47
46z m63 6 c0 -5 -6 -10 -14 -10 -8 0 -18 5 -21 10 -3 6 3 10 14 10 12 0 21 -4
21 -10z m76 -66 c4 -17 13 -24 30 -24 13 0 24 -4 24 -10 0 -5 -4 -10 -9 -10
-4 0 -20 -18 -35 -40 l-26 -39 -27 25 c-18 17 -33 22 -47 18 -29 -10 -86 -57
-86 -71 0 -16 62 -17 77 -2 14 14 43 5 43 -14 0 -11 -18 -16 -62 -19 -93 -7
-96 -5 -91 50 6 55 22 76 61 78 15 1 30 3 34 3 3 1 20 12 36 26 16 13 32 22
36 18 3 -3 6 6 6 20 0 33 27 26 36 -9z m-1019 -30 c15 -14 23 -23 16 -20 -6 3
-13 1 -15 -6 -5 -13 -48 25 -48 42 0 17 18 11 47 -16z m523 -75 c0 -18 -18 0
-34 34 l-16 32 25 -28 c14 -15 25 -33 25 -38z m-2740 -11 c-1 -41 -3 -49 -11
-36 -9 16 -3 88 7 88 2 0 4 -24 4 -52z m1745 12 c39 -27 105 -99 105 -114 0
-12 -22 -5 -50 16 -17 12 -30 30 -30 39 0 10 -18 30 -40 46 -36 25 -50 43 -34
43 3 0 25 -13 49 -30z m583 -10 c24 -43 26 -50 14 -50 -7 0 -52 74 -52 86 0
15 19 -2 38 -36z m592 9 c0 -5 -7 -9 -15 -9 -15 0 -20 12 -9 23 8 8 24 -1 24
-14z m363 -57 c43 24 35 -2 -17 -54 -31 -32 -56 -61 -56 -65 0 -15 -111 -54
-124 -44 -7 6 -23 7 -37 4 -24 -6 -24 -6 5 26 29 30 56 41 56 21 0 -5 11 -12
25 -16 34 -8 66 29 58 69 -5 24 0 33 23 52 24 20 31 21 39 10 8 -9 16 -10 28
-3z m177 -29 c-1 -17 -14 -43 -35 -66 -33 -38 -35 -39 -70 -27 -42 14 -41 35
1 36 40 1 53 10 70 50 17 41 34 44 34 7z m-3618 -30 c-3 -16 -7 -22 -10 -15
-4 13 4 42 11 42 2 0 2 -12 -1 -27z m2085 -80 c67 -66 240 -249 328 -348 33
-37 73 -81 89 -98 63 -70 96 -115 96 -131 0 -23 -26 -20 -43 5 -8 11 -30 28
-48 37 -18 9 -39 28 -48 42 -16 24 -15 24 22 -4 21 -16 40 -26 44 -23 9 9
-110 127 -128 127 -19 0 -122 113 -165 180 -47 74 -167 216 -196 233 -27 16
-38 37 -19 37 5 0 36 -26 68 -57z m-2100 15 c-3 -7 -5 -2 -5 12 0 14 2 19 5
13 2 -7 2 -19 0 -25z m91 3 c17 -1 15 -31 -2 -31 -8 0 -28 -12 -43 -26 -28
-26 -28 -26 -31 -4 -2 12 -1 33 2 45 5 19 12 23 34 21 15 -2 33 -4 40 -5z
m-221 -113 c-3 -8 -6 -5 -6 6 -1 11 2 17 5 13 3 -3 4 -12 1 -19z m-37 -50 c0
-7 -5 -20 -10 -28 -8 -12 -10 -9 -10 13 0 15 5 27 10 27 6 0 10 -6 10 -12z
m26 -54 c-10 -39 -23 -14 -18 33 4 34 6 36 15 16 5 -12 6 -34 3 -49z m-209
-11 c-3 -10 -5 -2 -5 17 0 19 2 27 5 18 2 -10 2 -26 0 -35z m53 -43 c0 -13 -1
-13 -10 0 -5 8 -10 22 -10 30 0 13 1 13 10 0 5 -8 10 -22 10 -30z m3730 -65
c0 -7 -15 -15 -32 -19 -27 -5 -36 -2 -50 15 -24 29 -23 39 6 39 14 0 28 5 32
12 8 13 44 -25 44 -47z m-435 2 c0 -26 -20 -25 -23 2 -3 16 1 22 10 19 7 -3
13 -12 13 -21z m-821 -16 c3 -5 -3 -11 -14 -14 -20 -5 -26 3 -13 16 9 10 21 9
27 -2z m46 -11 c0 -5 -5 -10 -11 -10 -5 0 -7 5 -4 10 3 6 8 10 11 10 2 0 4 -4
4 -10z m515 -123 c8 -16 15 -34 15 -40 0 -25 -109 73 -110 99 0 6 -7 17 -15
24 -8 7 -15 19 -15 27 0 21 106 -72 125 -110z m-411 87 c5 -12 2 -15 -10 -10
-8 3 -20 6 -25 6 -5 0 -9 5 -9 10 0 16 37 11 44 -6z m91 -71 c55 -71 59 -93 5
-35 -21 23 -46 42 -55 42 -8 0 -15 4 -15 9 0 5 -3 16 -6 25 -14 38 29 12 71
-41z m-260 9 c-8 -8 -25 10 -25 26 0 13 2 13 14 -4 8 -10 13 -21 11 -22z m240
-110 c6 -21 5 -23 -13 -13 -14 7 -18 17 -15 32 6 23 17 15 28 -19z m-2938 -19
c-3 -10 -5 -4 -5 12 0 17 2 24 5 18 2 -7 2 -21 0 -30z m3371 -5 c16 -24 72
-84 123 -133 52 -50 103 -103 114 -118 11 -15 73 -81 138 -148 65 -67 116
-123 114 -125 -2 -2 -23 6 -47 19 -33 17 -46 31 -52 56 -6 23 -21 40 -54 59
-24 15 -47 35 -50 45 -8 24 -96 117 -112 117 -10 0 -36 35 -37 51 -1 17 -45
63 -81 85 -48 29 -75 58 -91 102 -16 45 1 40 35 -10z m-378 -4 c0 -8 -4 -14
-10 -14 -5 0 -10 9 -10 21 0 11 5 17 10 14 6 -3 10 -13 10 -21z m-2883 -16
c-3 -7 -5 -2 -5 12 0 14 2 19 5 13 2 -7 2 -19 0 -25z m2863 -79 c0 -6 -4 -7
-10 -4 -5 3 -10 11 -10 16 0 6 5 7 10 4 6 -3 10 -11 10 -16z m78 -75 c37 -38
39 -44 13 -44 -13 0 -21 8 -23 23 -2 12 -6 20 -10 17 -10 -8 -48 46 -48 67 1
15 3 15 18 -6 9 -13 32 -39 50 -57z m275 8 c15 -16 25 -31 21 -34 -3 -3 15
-20 40 -37 27 -19 43 -37 40 -45 -5 -13 58 -76 75 -76 5 0 14 -14 20 -30 l10
-30 -50 42 c-57 48 -209 214 -209 228 0 19 26 10 53 -18z m-2687 -21 c-21 -39
-46 -48 -46 -16 0 23 22 44 48 45 10 0 9 -7 -2 -29z m-164 -18 c5 -26 -3 -73
-12 -73 -14 0 -21 36 -14 64 7 30 21 34 26 9z m-77 -19 c34 -4 31 -1 40 -51 6
-40 6 -41 -28 -54 -39 -14 -59 -45 -50 -78 3 -12 0 -28 -7 -36 -8 -9 -10 -28
-6 -48 5 -30 5 -31 -9 -13 -8 11 -15 25 -15 32 0 19 -47 23 -64 5 -9 -8 -16
-11 -17 -6 0 6 -2 17 -4 26 -1 9 1 23 6 30 8 12 10 12 18 0 5 -7 14 -10 21 -6
6 4 17 -1 24 -10 12 -16 14 -15 21 16 4 19 7 40 6 46 -1 7 5 26 14 43 11 22
14 45 10 83 -5 35 -3 48 3 38 6 -8 22 -15 37 -17z m3327 -53 c38 -60 35 -66
-12 -33 -25 17 -39 35 -40 49 0 12 -3 30 -7 40 -6 16 -5 17 12 3 10 -8 31 -35
47 -59z m-692 55 c0 -3 -4 -8 -10 -11 -5 -3 -10 -1 -10 4 0 6 5 11 10 11 6 0
10 -2 10 -4z m310 -88 c0 -5 -4 -8 -8 -8 -9 0 -32 44 -32 58 1 9 39 -41 40
-50z m555 -153 c48 -53 85 -99 81 -103 -4 -3 -39 28 -79 70 -40 41 -82 81 -94
87 -25 13 -31 41 -9 41 7 0 53 -43 101 -95z m-331 16 c27 -30 9 -47 -20 -20
-13 12 -21 26 -18 30 8 14 19 11 38 -10z m-288 -52 c19 -22 19 -22 -3 -10 -13
6 -23 16 -23 21 0 15 5 12 26 -11z m544 -39 c0 -5 -2 -10 -4 -10 -3 0 -8 5
-11 10 -3 6 -1 10 4 10 6 0 11 -4 11 -10z m-180 -11 c0 -5 -4 -7 -10 -4 -5 3
-10 1 -10 -6 0 -7 -3 -10 -6 -6 -8 7 4 27 17 27 5 0 9 -5 9 -11z m550 -60 c0
-14 -17 -10 -23 5 -4 10 -1 13 9 9 7 -3 14 -9 14 -14z"/>
<path d="M2391 4544 c0 -11 3 -14 6 -6 3 7 2 16 -1 19 -3 4 -6 -2 -5 -13z"/>
<path d="M2585 4028 c10 -46 50 -127 80 -163 l25 -30 -6 45 c-4 25 -15 53 -25
63 -11 10 -30 40 -44 67 -29 58 -40 64 -30 18z"/>
<path d="M2716 3865 c-3 -8 -2 -15 3 -15 5 0 12 -11 15 -25 4 -16 13 -25 26
-25 23 0 27 18 5 26 -8 4 -15 12 -15 19 0 7 -6 18 -14 24 -10 9 -15 8 -20 -4z"/>
<path d="M2600 3109 c0 -5 5 -7 10 -4 6 3 10 8 10 11 0 2 -4 4 -10 4 -5 0 -10
-5 -10 -11z"/>
<path d="M2605 2940 c-3 -5 -1 -10 4 -10 6 0 11 5 11 10 0 6 -2 10 -4 10 -3 0
-8 -4 -11 -10z"/>
<path d="M5032 1200 c12 -16 26 -30 32 -30 5 0 -3 14 -19 30 -16 17 -30 30
-32 30 -2 0 6 -13 19 -30z"/>
<path d="M4910 936 c0 -2 8 -10 18 -17 15 -13 16 -12 3 4 -13 16 -21 21 -21
13z"/>
<path d="M4870 6230 c0 -5 7 -10 16 -10 8 0 12 5 9 10 -3 6 -10 10 -16 10 -5
0 -9 -4 -9 -10z"/>
<path d="M4230 5260 c0 -5 12 -10 27 -10 17 0 36 -10 49 -26 26 -29 40 -18 16
13 -18 22 -92 41 -92 23z"/>
<path d="M4341 5248 c-2 -14 19 -58 28 -58 5 0 12 7 15 16 3 8 2 12 -4 9 -6
-3 -10 1 -10 10 0 9 -4 14 -9 11 -5 -4 -12 0 -14 6 -3 7 -6 10 -6 6z"/>
<path d="M5089 5030 c-87 -8 -138 -54 -130 -117 1 -7 -5 -13 -13 -13 -17 0
-50 -30 -41 -38 3 -3 20 -7 38 -8 18 -1 55 -5 84 -9 30 -4 60 -2 72 4 12 6 31
16 42 22 15 8 24 8 32 0 13 -13 37 37 37 78 0 50 13 57 65 37 50 -20 69 -48
53 -79 -11 -22 -11 -22 23 -30 18 -5 31 -2 39 8 7 8 19 15 26 15 25 0 15 23
-31 66 -26 26 -57 45 -77 49 -76 13 -167 20 -219 15z m89 -73 c2 -10 -3 -17
-12 -17 -10 0 -16 9 -16 21 0 24 23 21 28 -4z"/>
<path d="M4360 4965 c24 -25 51 -45 59 -45 8 0 -5 19 -30 45 -24 25 -51 45
-59 45 -8 0 5 -19 30 -45z"/>
<path d="M4509 4974 c-8 -9 -14 -39 -14 -65 0 -51 -7 -61 -24 -31 -9 15 -10
15 -11 -5 0 -13 6 -23 13 -23 9 0 8 -3 -2 -9 -9 -6 -10 -11 -2 -15 21 -13 11
-31 -53 -101 -35 -39 -64 -71 -63 -72 7 -6 113 21 119 30 5 8 8 6 8 -5 0 -11
8 -18 20 -18 25 0 38 -26 46 -91 6 -53 5 -55 -50 -128 -44 -59 -56 -82 -56
-111 0 -43 33 -83 88 -106 44 -18 56 -18 48 2 -4 10 7 31 29 58 72 83 75 85
106 74 25 -9 34 -6 64 16 44 34 65 74 65 125 0 42 -17 91 -32 91 -4 0 -8 5 -8
10 0 6 -7 27 -17 48 -21 47 -18 37 -28 106 -8 62 -15 72 -86 128 -19 15 -57
45 -85 67 -29 23 -54 41 -57 41 -2 0 -11 -7 -18 -16z"/>
<path d="M4280 4943 c13 -10 39 -32 56 -50 18 -18 45 -35 61 -39 26 -7 27 -7
10 10 -9 10 -17 20 -17 24 0 15 -68 60 -100 66 l-35 6 25 -17z"/>
<path d="M4307 4837 c-15 -10 -11 -12 28 -9 25 2 45 8 45 13 0 13 -54 11 -73
-4z"/>
<path d="M4730 4283 c-50 -6 -56 -18 -18 -32 18 -7 56 -21 85 -32 41 -16 56
-18 73 -9 12 6 20 17 18 23 -5 15 -87 58 -108 55 -8 0 -31 -3 -50 -5z"/>
<path d="M4438 3963 c-10 -3 -18 -8 -18 -12 0 -11 -69 -81 -79 -81 -14 0 -61
-48 -61 -62 0 -8 12 -21 28 -30 15 -9 39 -28 54 -42 15 -14 29 -26 32 -26 2 0
15 -9 28 -21 41 -37 158 -66 158 -40 0 6 12 23 28 38 24 26 35 29 97 32 83 3
93 10 78 51 -8 20 -8 41 -2 62 10 36 0 48 -39 48 -21 0 -146 -31 -184 -45 -25
-10 -31 12 -8 35 11 11 17 20 13 20 -5 0 -2 4 5 8 25 17 2 42 -39 42 -21 0
-41 -1 -44 -2 -2 -2 -10 4 -17 13 -7 9 -21 14 -30 12z"/>
<path d="M5260 3945 c-7 -8 -23 -15 -35 -15 -25 0 -38 -21 -29 -45 8 -19 24
-20 24 -1 0 21 21 25 57 11 37 -16 49 -2 30 35 -15 30 -31 35 -47 15z"/>
<path d="M3772 2458 c6 -16 85 -45 95 -34 4 4 -3 16 -17 26 -28 22 -84 27 -78
8z"/>
<path d="M3680 2403 c-36 -14 -40 -24 -20 -50 11 -14 20 -32 20 -41 0 -12 2
-12 17 -1 13 11 17 11 20 2 3 -7 15 -13 28 -13 28 0 76 39 58 46 -7 3 -13 12
-13 20 0 8 -7 14 -15 14 -8 0 -14 6 -12 13 2 13 -56 20 -83 10z"/>
<path d="M3940 2370 c0 -5 10 -10 23 -10 21 -1 22 -1 3 -15 -25 -19 -8 -19 34
-1 32 13 32 14 12 25 -26 14 -72 14 -72 1z"/>
<path d="M3839 2307 c-18 -5 -43 -18 -55 -31 -18 -19 -19 -24 -7 -35 11 -10
12 -16 4 -24 -8 -8 -20 -7 -44 5 -59 29 -75 30 -42 3 42 -36 85 -53 154 -61
51 -5 61 -4 84 16 27 24 29 56 3 54 -19 -2 -21 17 -5 33 9 9 15 9 24 0 40 -38
62 -49 111 -57 30 -5 79 -23 110 -39 65 -36 78 -38 122 -11 28 17 31 23 22 40
-6 10 -27 27 -48 37 -20 9 -39 19 -42 22 -3 4 -36 17 -75 31 -57 20 -90 25
-176 25 -58 1 -121 -3 -140 -8z"/>
<path d="M3640 2217 c8 -6 16 -18 18 -26 3 -15 33 -43 75 -68 15 -10 27 -21
27 -26 0 -5 -5 -5 -12 0 -40 31 -46 17 -8 -18 86 -77 124 -91 80 -28 l-23 31
44 -7 c55 -9 77 -24 114 -75 17 -22 37 -39 45 -37 8 1 29 -14 47 -33 18 -19
33 -30 33 -24 0 7 -20 34 -45 62 -43 47 -57 71 -35 57 16 -10 12 7 -7 27 -19
22 -5 24 23 3 23 -17 34 -18 69 -5 25 10 26 11 9 28 -10 9 -32 17 -48 17 -20
0 -30 5 -28 13 1 6 -5 12 -13 12 -9 0 -12 6 -8 16 5 13 -1 14 -38 10 -24 -2
-47 -5 -51 -5 -4 -1 -5 -8 -2 -16 4 -9 0 -15 -9 -15 -8 0 -17 -6 -19 -12 -3
-9 -11 -8 -29 5 -67 48 -129 86 -174 106 -27 11 -43 15 -35 8z"/>
<path d="M4446 2193 c-44 -23 -79 -59 -74 -75 3 -7 35 -22 71 -32 46 -13 64
-23 60 -32 -3 -8 0 -14 6 -14 20 0 11 -29 -11 -36 -44 -13 -51 -49 -14 -65 20
-9 35 -7 80 11 30 13 57 29 60 37 3 7 -6 23 -19 35 -14 12 -25 24 -25 28 0 3
16 14 35 23 19 9 35 20 35 24 0 11 -66 63 -79 63 -6 0 -11 4 -11 8 0 4 -17 14
-37 22 -21 8 -40 16 -43 17 -3 1 -18 -5 -34 -14z m94 -83 c0 -15 -12 -12 -37
9 -32 27 -28 34 7 16 17 -9 30 -20 30 -25z"/>
<path d="M3250 2133 c0 -5 16 -18 36 -31 27 -18 33 -26 25 -36 -15 -18 61
-112 88 -108 10 1 30 -2 44 -7 21 -8 27 -8 27 3 0 21 -48 74 -83 93 -17 9 -40
26 -50 40 -25 32 -87 64 -87 46z"/>
<path d="M4183 2065 c-17 -27 -19 -35 -8 -35 8 0 15 -4 15 -10 0 -5 9 -10 19
-10 11 0 23 -4 26 -10 12 -19 71 -11 94 13 28 31 19 51 -32 71 -65 24 -89 20
-114 -19z m78 -11 c42 -21 30 -28 -20 -12 -23 8 -38 17 -34 21 10 10 21 9 54
-9z"/>
<path d="M4672 2054 c-4 -62 22 -77 84 -48 45 22 45 50 -1 70 -19 7 -45 14
-57 14 -19 0 -23 -6 -26 -36z"/>
<path d="M4383 2062 c-14 -9 5 -39 27 -42 44 -7 60 0 60 25 0 22 -4 25 -37 25
-21 0 -43 -4 -50 -8z"/>
<path d="M3138 2032 c-10 -2 -18 -7 -18 -11 0 -10 82 -87 107 -100 14 -7 27
-28 33 -52 13 -47 10 -55 -18 -40 -12 6 -32 11 -45 11 -21 0 -25 -6 -30 -42
-7 -53 15 -89 84 -135 47 -32 48 -32 70 -14 17 14 22 28 22 64 -1 41 2 47 19
47 19 0 20 5 16 59 -3 43 -12 73 -34 107 -27 44 -37 51 -109 79 -44 17 -88 29
-97 27z m155 -297 c9 -21 -9 -28 -27 -9 -21 20 -20 24 3 24 10 0 21 -7 24 -15z"/>
<path d="M4800 2021 c0 -5 7 -12 16 -15 14 -5 15 -4 4 9 -14 17 -20 19 -20 6z"/>
<path d="M4170 1991 c38 -31 36 -53 -2 -29 -36 23 -78 31 -78 15 0 -22 35 -48
56 -41 14 4 15 3 6 -4 -10 -7 -6 -15 18 -36 35 -29 55 -34 46 -10 -9 24 3 37
21 22 14 -11 15 -10 9 10 -8 25 -7 26 29 12 20 -8 26 -7 23 2 -3 7 -13 15 -24
16 -10 2 -28 12 -39 22 -21 18 -78 50 -92 50 -4 0 8 -13 27 -29z"/>
<path d="M3804 1995 c4 -11 2 -21 -5 -26 -7 -4 -1 -6 13 -6 21 2 24 5 17 19
-14 25 -34 36 -25 13z"/>
<path d="M4342 1979 c-13 -5 -22 -15 -20 -21 6 -19 68 -58 91 -58 16 0 19 5
13 31 -10 53 -36 68 -84 48z"/>
<path d="M3110 1954 c0 -8 5 -12 10 -9 6 3 10 10 10 16 0 5 -4 9 -10 9 -5 0
-10 -7 -10 -16z"/>
<path d="M3427 1903 c-11 -17 21 -107 45 -130 29 -26 68 -39 68 -22 0 6 7 17
15 23 14 10 13 16 -7 56 -13 25 -28 45 -35 45 -6 0 -15 3 -19 8 -4 4 -17 7
-30 7 -12 0 -24 5 -26 12 -3 8 -6 9 -11 1z"/>
<path d="M3810 1870 c0 -42 -7 -49 -29 -27 -10 10 -11 8 -6 -8 5 -13 -9 -4
-35 23 -44 46 -64 50 -36 8 19 -30 23 -77 4 -58 -7 7 -15 12 -19 12 -12 0 19
-88 50 -143 17 -28 40 -70 52 -92 12 -22 29 -47 38 -56 15 -15 17 -14 34 4 20
24 22 56 4 82 -10 13 -16 15 -21 6 -5 -8 -17 -1 -37 21 -39 44 -37 58 6 54 25
-3 35 0 35 10 0 8 9 14 20 14 11 0 20 -5 20 -11 0 -5 5 -7 11 -4 6 4 25 -9 43
-29 18 -19 36 -33 40 -29 3 3 1 12 -5 20 -6 7 -8 13 -4 13 3 0 -7 11 -23 25
-16 14 -29 32 -28 42 1 10 -10 19 -31 25 -24 6 -33 14 -33 29 0 11 -4 18 -9
15 -4 -3 -6 5 -4 17 5 26 -12 77 -27 77 -5 0 -10 -18 -10 -40z"/>
<path d="M3882 1859 c2 -7 10 -15 17 -17 8 -3 12 1 9 9 -2 7 -10 15 -17 17 -8
3 -12 -1 -9 -9z"/>
<path d="M4066 1842 c-5 -9 50 -69 58 -61 2 2 -9 19 -24 37 -15 19 -30 29 -34
24z"/>
<path d="M4485 1840 c4 -6 11 -8 16 -5 14 9 11 15 -7 15 -8 0 -12 -5 -9 -10z"/>
<path d="M3952 1811 l-24 -6 23 -28 c13 -18 28 -27 39 -24 10 2 31 -6 46 -19
l29 -23 -36 8 c-34 8 -35 7 -26 -14 6 -11 25 -26 43 -31 l32 -10 -5 40 c-8 61
-73 119 -121 107z"/>
<path d="M3904 1666 c-10 -26 2 -94 20 -111 14 -15 16 -15 16 -1 0 9 5 16 10
16 21 0 10 66 -15 90 -22 21 -25 21 -31 6z"/>
<path d="M3536 1649 c-12 -12 -16 -24 -11 -38 8 -25 2 -26 -31 -5 -30 20 -37
15 -28 -21 8 -33 110 -103 126 -87 7 7 19 7 37 0 14 -5 35 -12 46 -14 21 -4
29 -13 57 -63 19 -35 38 -41 38 -11 0 11 5 20 10 20 6 0 10 7 10 15 0 30 -40
128 -59 146 -10 10 -21 23 -23 29 -2 6 -19 12 -38 13 -19 2 -46 9 -60 17 -35
19 -52 19 -74 -1z"/>
<path d="M4000 1659 c0 -5 5 -9 10 -9 6 0 20 -16 31 -35 12 -19 24 -33 28 -30
4 2 31 -2 60 -10 50 -13 52 -13 37 4 -9 10 -16 26 -16 37 0 15 5 13 26 -13 24
-31 54 -44 54 -23 0 14 -75 90 -89 90 -8 0 -10 -7 -6 -20 4 -14 2 -20 -9 -20
-8 0 -18 5 -21 10 -4 6 -12 10 -18 9 -7 -1 -19 0 -27 4 -32 12 -60 15 -60 6z"/>
<path d="M2909 1593 c-15 -41 3 -75 39 -71 22 2 28 9 30 35 2 23 -3 35 -20 47
-31 22 -37 20 -49 -11z"/>
<path d="M3370 1605 c0 -10 45 -75 52 -75 16 0 18 22 3 50 -9 18 -23 30 -35
30 -11 0 -20 -2 -20 -5z"/>
<path d="M3300 1563 c0 -51 -12 -93 -26 -93 -10 0 -14 -14 -14 -50 0 -37 4
-50 14 -50 8 0 29 -12 47 -27 23 -20 34 -24 37 -15 2 8 18 27 34 44 l31 31
-23 51 c-12 28 -27 66 -33 84 -6 19 -17 32 -27 32 -9 0 -21 5 -28 12 -9 9 -12
5 -12 -19z m70 -114 c16 -28 5 -49 -24 -49 -32 0 -39 12 -25 44 15 31 34 33
49 5z"/>
<path d="M4167 1525 c18 -39 29 -39 19 -2 -3 14 -12 27 -21 30 -12 5 -12 1 2
-28z"/>
<path d="M3066 1527 c-41 -26 -61 -52 -57 -77 5 -43 29 -89 58 -115 34 -29 48
-31 65 -7 7 10 20 21 29 24 26 10 31 85 8 129 -28 55 -63 71 -103 46z m74 -82
c0 -8 -4 -15 -10 -15 -5 0 -10 7 -10 15 0 8 5 15 10 15 6 0 10 -7 10 -15z
m-30 -24 c0 -5 -7 -12 -16 -15 -24 -9 -28 -7 -14 9 14 17 30 20 30 6z"/>
<path d="M4260 1535 c0 -15 18 -40 24 -34 3 3 -1 14 -9 25 -8 10 -14 15 -15 9z"/>
<path d="M3970 1475 c0 -39 24 -105 38 -105 21 0 50 -42 56 -83 6 -37 13 -48
46 -70 l40 -26 6 25 c4 17 -3 38 -24 71 -16 27 -37 69 -47 95 -11 30 -31 59
-53 75 -19 16 -41 34 -48 41 -12 11 -14 8 -14 -23z"/>
<path d="M4220 1504 c0 -3 5 -15 11 -26 8 -16 13 -18 19 -8 5 8 3 19 -5 27
-14 14 -25 17 -25 7z"/>
<path d="M4260 1448 c0 -23 15 -37 38 -35 27 2 27 5 0 28 -25 22 -38 24 -38 7z"/>
<path d="M3546 1415 c-8 -21 -8 -79 0 -99 3 -9 11 -13 18 -9 6 4 16 8 21 9 6
0 16 2 23 2 7 1 12 17 12 40 0 32 -5 41 -27 53 -16 7 -31 15 -34 17 -4 1 -9
-4 -13 -13z"/>
<path d="M4241 1393 c-1 -33 26 -103 41 -103 4 0 8 -7 8 -15 0 -8 -3 -15 -8
-15 -10 0 -41 37 -54 65 -7 17 -18 22 -40 21 -28 -1 -29 -2 -22 -41 11 -67
114 -203 114 -150 0 14 3 13 28 -2 15 -9 39 -28 55 -42 15 -14 27 -19 27 -12
0 9 9 11 30 6 23 -5 30 -3 30 9 0 8 -4 17 -9 20 -5 3 -8 17 -8 30 0 16 -15 39
-42 65 -43 41 -52 57 -26 47 9 -3 15 0 15 8 0 18 -31 54 -50 58 -8 2 -23 14
-32 28 l-18 25 0 -25 c0 -24 0 -24 -14 -5 -7 11 -16 29 -19 40 -3 13 -5 9 -6
-12z m99 -94 c0 -6 -4 -7 -10 -4 -5 3 -10 11 -10 16 0 6 5 7 10 4 6 -3 10 -11
10 -16z m81 -126 c13 -16 12 -17 -3 -4 -17 13 -22 21 -14 21 2 0 10 -8 17 -17z"/>
<path d="M3900 1395 c-18 -22 2 -63 50 -100 22 -16 37 -36 35 -43 -3 -7 -1
-11 4 -8 5 3 14 -1 21 -9 20 -23 33 -18 26 11 -9 36 -47 93 -88 132 -31 29
-36 31 -48 17z"/>
<path d="M2805 1348 c-22 -23 -28 -39 -28 -76 0 -59 10 -92 27 -92 8 0 19 -6
26 -14 10 -13 17 -12 48 6 20 11 40 25 44 32 15 22 8 63 -17 96 -14 19 -25 41
-25 51 0 31 -45 29 -75 -3z m55 -78 c0 -5 -5 -10 -11 -10 -5 0 -7 5 -4 10 3 6
8 10 11 10 2 0 4 -4 4 -10z"/>
<path d="M3005 1297 c-37 -21 -41 -27 -49 -78 -12 -76 -3 -104 35 -118 45 -16
50 -14 43 14 -5 19 1 32 25 56 38 38 42 86 9 123 l-23 26 -40 -23z"/>
<path d="M3449 1283 c-6 -16 -13 -40 -16 -55 -3 -16 -9 -28 -14 -28 -22 0 -5
-41 33 -78 49 -49 74 -53 91 -14 6 15 16 30 21 33 5 4 7 29 4 57 -4 40 -11 55
-39 80 -42 39 -66 40 -80 5z m71 -64 c0 -26 -23 -49 -49 -49 -26 0 -28 26 -4
52 22 25 53 24 53 -3z"/>
<path d="M3130 1244 c0 -13 4 -34 9 -47 20 -52 90 -32 76 22 -10 39 -24 51
-56 49 -23 -2 -29 -7 -29 -24z"/>
<path d="M3647 1263 c-4 -3 -7 -16 -7 -28 0 -13 -7 -28 -15 -35 -21 -17 -19
-37 5 -57 11 -10 20 -25 20 -33 0 -9 6 -24 13 -34 13 -17 14 -17 30 -1 9 9 17
22 17 28 0 7 9 18 20 25 26 16 26 58 -1 80 -12 9 -33 27 -47 40 -28 25 -26 24
-35 15z m43 -83 c30 -30 26 -52 -7 -48 -23 2 -29 8 -31 36 -4 37 9 41 38 12z"/>
<path d="M3266 1242 c-8 -24 1 -48 17 -50 7 0 21 -2 32 -4 17 -3 20 3 20 31 0
31 -3 35 -32 38 -24 3 -33 -1 -37 -15z"/>
<path d="M3925 1249 c-2 -8 -6 -57 -7 -109 -3 -79 0 -95 12 -95 8 0 16 -10 18
-22 2 -13 6 -23 10 -23 4 0 13 -14 20 -30 8 -17 23 -35 34 -41 20 -11 21 -10
14 51 -5 41 -16 76 -33 101 -27 41 -26 82 1 60 11 -9 15 -9 18 0 5 15 54 -32
63 -60 3 -10 6 -41 6 -67 1 -91 22 -153 51 -154 4 0 5 26 2 58 -5 52 -5 55 9
37 9 -11 18 -17 21 -14 8 7 -13 69 -30 89 -7 8 -20 34 -29 57 -9 23 -22 40
-28 37 -7 -2 -23 16 -36 41 -13 24 -33 47 -45 51 -11 3 -31 15 -43 27 -18 16
-24 17 -28 6z"/>
<path d="M4455 1190 c3 -5 8 -10 11 -10 2 0 4 5 4 10 0 6 -5 10 -11 10 -5 0
-7 -4 -4 -10z"/>
<path d="M4850 1123 c0 -13 9 -27 21 -33 31 -17 33 -6 5 26 -24 28 -25 28 -26
7z"/>
<path d="M6036 1131 c-3 -5 5 -12 18 -15 13 -3 31 -9 40 -12 27 -10 18 12 -9
24 -31 14 -42 15 -49 3z"/>
<path d="M2843 1113 c-3 -8 -14 -11 -29 -7 -21 5 -24 3 -24 -21 0 -20 -4 -26
-15 -21 -10 4 -15 -1 -15 -14 0 -11 4 -20 9 -20 5 0 12 -8 15 -18 4 -10 20
-28 36 -40 28 -21 31 -22 55 -6 36 23 53 12 61 -41 3 -25 9 -43 12 -41 3 3 20
-5 38 -19 32 -24 35 -25 69 -11 32 14 35 19 34 53 -1 52 -9 68 -48 98 -39 28
-86 33 -95 10 -3 -8 -12 -15 -20 -15 -12 0 -13 11 -9 54 4 39 2 56 -8 62 -21
13 -61 12 -66 -3z m217 -147 c0 -22 -29 -41 -42 -28 -9 9 -7 17 7 32 18 20 35
18 35 -4z"/>
<path d="M3274 1106 c-4 -9 -4 -28 -1 -41 2 -14 0 -28 -4 -31 -24 -14 9 -100
50 -131 46 -35 98 12 85 77 -6 27 -8 29 -23 17 -22 -20 -55 -29 -75 -21 -26
10 -19 43 14 62 16 9 30 22 30 27 -1 34 -65 68 -76 41z"/>
<path d="M3150 1099 c0 -6 -7 -9 -15 -6 -11 5 -13 0 -8 -26 7 -39 3 -34 35
-42 32 -8 44 17 29 59 -10 25 -41 37 -41 15z"/>
<path d="M4565 1062 c26 -28 43 -25 27 5 -6 10 -20 19 -31 20 -20 2 -20 1 4
-25z"/>
<path d="M3590 1059 c0 -11 9 -37 20 -59 11 -22 20 -47 20 -57 0 -15 2 -15 15
3 18 23 19 85 3 106 -7 8 -23 18 -35 21 -18 4 -23 1 -23 -14z"/>
<path d="M3748 1062 c-19 -4 -29 -42 -31 -108 -1 -83 55 -100 78 -23 5 19 14
40 18 47 22 33 -25 93 -65 84z m32 -46 c16 -30 6 -59 -17 -54 -19 3 -29 38
-19 64 8 21 21 17 36 -10z"/>
<path d="M3376 1045 c4 -8 8 -15 10 -15 2 0 4 7 4 15 0 8 -4 15 -10 15 -5 0
-7 -7 -4 -15z"/>
<path d="M4361 1017 c-1 -10 -5 -16 -10 -12 -5 3 -20 -9 -34 -26 -22 -28 -23
-36 -15 -68 5 -20 15 -41 21 -48 19 -19 101 -42 112 -32 13 13 -22 140 -44
159 -10 9 -20 22 -24 30 -4 11 -6 11 -6 -3z m24 -117 c0 -23 -59 -20 -63 3 -3
15 2 18 30 15 21 -2 33 -8 33 -18z"/>
<path d="M4490 971 c0 -11 5 -23 10 -26 6 -3 10 3 10 14 0 11 -4 23 -10 26 -5
3 -10 -3 -10 -14z"/>
<path d="M6073 977 c4 -10 7 -29 7 -42 0 -27 29 -60 41 -48 4 4 11 28 15 52 7
43 6 44 -16 38 -13 -3 -31 -1 -39 6 -12 10 -14 9 -8 -6z"/>
<path d="M2695 949 c-4 -5 -18 -14 -31 -19 -23 -9 -24 -13 -24 -104 0 -84 2
-97 19 -106 29 -15 49 -12 68 10 10 11 23 20 30 20 7 0 13 5 13 10 0 24 22 6
36 -30 9 -22 21 -40 26 -40 5 0 16 -7 24 -15 16 -16 57 -12 82 8 30 24 34 47
16 100 -9 29 -18 57 -19 62 -1 6 -19 16 -39 23 -33 12 -40 12 -56 -3 -10 -9
-21 -28 -24 -41 -10 -38 -28 -24 -42 32 -18 78 -31 104 -53 104 -11 0 -23 -5
-26 -11z m25 -108 c0 -5 -7 -11 -15 -15 -15 -5 -20 5 -8 17 9 10 23 9 23 -2z
m198 -63 c-5 -34 -38 -37 -38 -4 0 20 5 26 21 26 15 0 20 -5 17 -22z"/>
<path d="M3491 947 c-15 -15 -13 -61 7 -136 21 -77 47 -98 37 -29 -5 36 -3 52
14 79 23 38 27 74 9 85 -19 12 -55 13 -67 1z"/>
<path d="M6205 950 c3 -5 8 -10 11 -10 2 0 4 5 4 10 0 6 -5 10 -11 10 -5 0 -7
-4 -4 -10z"/>
<path d="M3166 888 c-10 -22 -11 -40 -4 -59 9 -27 38 -48 38 -29 0 17 39 50
59 50 34 0 33 -30 -1 -62 l-31 -29 20 -21 21 -20 21 21 c24 24 26 52 10 115
-9 35 -16 45 -43 54 -55 20 -76 15 -90 -20z"/>
<path d="M3831 844 c-10 -44 -10 -62 -1 -85 18 -42 30 -36 30 16 0 35 4 45 16
45 13 0 15 -7 12 -32 -3 -18 -8 -41 -13 -50 -5 -13 -3 -18 10 -18 9 0 19 9 22
20 3 11 9 20 13 20 14 0 17 -24 8 -55 -18 -66 -11 -95 37 -143 31 -31 44 -51
40 -63 -4 -11 3 -25 16 -38 29 -26 48 -28 25 -2 -14 16 -17 35 -15 98 2 43 -1
98 -5 123 -8 45 -35 107 -36 83 0 -22 -16 -14 -29 14 -10 21 -14 24 -21 13
-11 -18 -12 -17 -40 53 -31 76 -52 76 -69 1z"/>
<path d="M4502 888 c-18 -18 -15 -53 7 -72 14 -13 20 -14 23 -4 4 10 10 10 33
0 15 -7 30 -11 32 -8 6 6 -16 86 -25 87 -4 0 -18 3 -32 5 -14 2 -31 -1 -38 -8z"/>
<path d="M4240 864 c0 -20 142 -173 161 -174 4 0 10 7 13 16 10 27 -40 84 -73
84 -31 0 -52 16 -45 35 3 7 -5 20 -18 29 -23 17 -38 20 -38 10z"/>
<path d="M6076 855 c-3 -8 -1 -15 4 -15 6 0 10 7 10 15 0 8 -2 15 -4 15 -2 0
-6 -7 -10 -15z"/>
<path d="M3681 848 c-1 -10 -11 -28 -22 -39 -18 -18 -20 -27 -12 -53 5 -17 15
-31 23 -31 19 0 34 84 21 116 -7 18 -10 19 -10 7z"/>
<path d="M6220 836 c0 -8 5 -18 10 -21 16 -10 11 -23 -10 -27 -19 -3 -18 -7
16 -55 20 -29 43 -53 50 -53 20 0 17 14 -6 35 -11 10 -20 27 -20 37 0 15 5 18
20 13 14 -4 20 -2 20 9 0 18 -21 66 -29 67 -3 0 -16 2 -28 5 -15 2 -23 -1 -23
-10z"/>
<path d="M2523 813 c-33 -22 -32 -88 2 -133 14 -19 25 -29 25 -22 0 7 9 21 20
32 27 27 28 100 2 123 -22 20 -21 20 -49 0z"/>
<path d="M4540 797 c0 -12 40 -47 54 -47 9 0 30 -7 46 -15 17 -9 30 -12 30 -7
0 14 -43 49 -70 57 -14 3 -33 9 -42 11 -10 3 -18 3 -18 1z"/>
<path d="M3092 774 c-7 -13 -13 -14 -29 -6 -31 17 -55 -6 -51 -48 3 -32 6 -35
35 -36 18 0 40 -7 50 -15 31 -26 53 -13 53 31 0 73 -34 117 -58 74z"/>
<path d="M3407 772 c-21 -23 -22 -46 -3 -61 10 -9 17 -6 30 13 33 51 10 89
-27 48z"/>
<path d="M4460 769 c0 -42 105 -188 116 -161 3 6 10 9 16 6 27 -17 39 76 14
109 -7 9 -21 17 -32 17 -14 0 -15 -3 -6 -12 16 -16 15 -28 -3 -28 -9 0 -25 16
-36 35 -12 19 -25 35 -29 35 -5 0 -15 3 -24 6 -10 4 -16 1 -16 -7z"/>
<path d="M4147 714 c-6 -55 2 -124 14 -124 5 0 9 -6 9 -14 0 -8 5 -18 11 -22
9 -5 10 1 5 20 -6 25 -5 27 16 21 13 -4 28 -13 34 -21 6 -8 16 -14 23 -14 6 0
11 -5 11 -11 0 -6 7 -8 15 -5 10 4 19 -2 24 -17 9 -22 9 -22 16 4 4 16 -1 47
-15 85 -12 32 -24 67 -27 76 -7 23 -67 60 -90 56 -10 -1 -23 1 -29 5 -8 4 -13
-9 -17 -39z"/>
<path d="M5540 752 c0 -13 71 -75 78 -68 3 4 -10 22 -28 41 -33 34 -50 43 -50
27z"/>
<path d="M5881 729 c-30 -6 -50 -22 -51 -40 0 -4 9 -18 21 -33 19 -24 22 -25
33 -10 11 14 16 15 37 4 14 -8 19 -15 11 -18 -6 -2 -9 -8 -6 -14 5 -7 -3 -9
-21 -6 l-27 6 36 -37 c32 -32 42 -36 84 -35 27 0 56 3 65 7 17 6 17 9 1 39
-28 55 -57 88 -75 88 -10 0 -25 9 -33 21 -8 12 -19 18 -24 15 -6 -3 -12 0 -14
7 -2 9 -13 11 -37 6z"/>
<path d="M3774 712 c6 -17 3 -19 -14 -15 -16 4 -20 0 -21 -18 -3 -65 24 -167
47 -176 7 -2 27 4 44 14 31 17 31 20 26 73 -3 30 -6 66 -7 81 0 18 -8 29 -32
39 -18 7 -36 15 -41 18 -4 2 -5 -5 -2 -16z m48 -107 c10 -38 -7 -58 -28 -31
-8 11 -14 31 -14 44 0 34 32 25 42 -13z"/>
<path d="M4706 701 c-22 -24 -20 -42 9 -85 14 -20 25 -40 25 -44 0 -10 49 -62
58 -62 26 1 35 21 30 65 -6 50 -30 80 -36 45 -4 -23 -13 -25 -30 -8 -17 17
-15 48 3 48 20 0 19 13 -2 32 -31 26 -40 28 -57 9z"/>
<path d="M4455 658 c-7 -26 19 -108 38 -120 35 -22 36 15 5 89 -25 58 -35 65
-43 31z"/>
<path d="M4830 670 c0 -28 54 -110 72 -110 20 0 6 60 -21 89 -29 31 -51 40
-51 21z"/>
<path d="M3376 628 c-4 -24 -2 -46 4 -52 7 -7 10 -6 10 3 0 7 10 21 22 30 22
19 19 34 -11 51 -16 8 -19 4 -25 -32z"/>
<path d="M6240 662 c0 -4 6 -14 13 -21 10 -10 9 -11 -5 -6 -22 9 -23 -8 -2
-25 12 -11 18 -11 30 2 13 12 14 20 5 37 -11 20 -41 30 -41 13z"/>
<path d="M5723 644 c-4 -11 -8 -12 -13 -4 -4 7 -13 11 -19 9 -7 -3 8 -27 34
-57 50 -59 56 -73 23 -48 -13 9 -33 23 -45 32 -16 12 -30 13 -48 7 l-27 -9 47
-33 c25 -18 49 -30 52 -27 9 8 34 -14 28 -25 -9 -13 38 -79 91 -130 54 -51 76
-63 92 -47 17 17 -16 62 -72 100 -5 4 -3 12 6 21 11 11 19 12 26 5 7 -7 12 -1
17 20 10 46 -17 89 -103 165 -44 39 -79 47 -89 21z m95 -111 c-4 -22 -22 -20
-26 1 -2 10 3 16 13 16 10 0 15 -7 13 -17z m-30 -61 c2 -7 -2 -10 -12 -6 -9 3
-16 11 -16 16 0 13 23 5 28 -10z"/>
<path d="M2750 638 c0 -31 22 -88 34 -88 6 0 21 6 32 14 19 14 19 15 0 50 -14
26 -26 36 -43 36 -12 0 -23 -6 -23 -12z"/>
<path d="M3555 637 c-14 -11 -17 -22 -12 -57 7 -52 13 -59 61 -67 36 -6 38 -4
34 18 -2 14 -9 23 -17 21 -10 -2 -12 5 -7 29 4 23 1 38 -10 51 -20 22 -25 22
-49 5z"/>
<path d="M4360 602 c0 -40 8 -59 47 -120 27 -42 50 -67 54 -61 4 8 8 7 12 -2
3 -9 6 -6 6 7 2 34 -58 188 -81 207 -31 26 -38 21 -38 -31z"/>
<path d="M2990 596 c0 -29 7 -52 21 -70 18 -23 27 -27 68 -24 34 2 47 7 49 21
5 24 -81 110 -113 113 -23 2 -25 0 -25 -40z"/>
<path d="M5600 631 c0 -12 37 -34 51 -29 5 2 -4 11 -21 21 -16 10 -30 14 -30
8z"/>
<path d="M3238 613 c-20 -5 -23 -20 -9 -42 9 -14 82 -44 89 -36 2 2 -4 21 -14
42 -19 38 -33 45 -66 36z"/>
<path d="M2920 593 c0 -6 -13 -14 -30 -18 -23 -5 -31 -13 -35 -39 -9 -45 -3
-89 13 -94 6 -2 12 3 12 11 0 8 6 17 14 20 35 14 36 -45 1 -61 -14 -6 -25 -18
-25 -26 0 -24 36 -60 53 -53 29 11 36 232 8 260 -8 8 -11 8 -11 0z"/>
<path d="M6455 590 c-3 -5 -1 -10 4 -10 6 0 11 5 11 10 0 6 -2 10 -4 10 -3 0
-8 -4 -11 -10z"/>
<path d="M6286 561 c11 -18 33 -40 49 -48 17 -8 39 -20 50 -27 30 -18 125
-108 125 -118 0 -4 -11 -8 -25 -8 -18 0 -29 9 -44 38 -15 29 -21 34 -26 20 -4
-10 -13 -14 -23 -11 -11 5 -14 2 -10 -8 3 -8 9 -22 13 -31 5 -13 2 -18 -9 -18
-12 0 -14 -7 -10 -32 9 -54 25 -77 61 -89 26 -8 37 -8 48 1 9 7 26 9 41 6 l26
-7 -28 36 c-29 38 -26 59 4 32 27 -25 31 -21 21 18 -5 19 -13 50 -18 69 -5 19
-21 45 -37 59 -73 64 -103 87 -115 87 -7 0 -23 10 -36 22 -22 20 -23 21 -23 2
-1 -16 -5 -14 -26 11 l-26 30 18 -34z"/>
<path d="M3438 545 c-43 -22 -45 -27 -22 -49 27 -28 52 -20 60 18 9 50 4 54
-38 31z"/>
<path d="M5376 543 c21 -33 32 -44 62 -61 34 -19 26 0 -18 46 -45 48 -72 57
-44 15z"/>
<path d="M4666 547 c-18 -13 -18 -17 -4 -58 18 -53 65 -105 101 -115 31 -7 34
4 16 55 -7 20 -17 30 -27 29 -11 -2 -18 11 -26 47 -12 53 -29 65 -60 42z"/>
<path d="M4137 501 c-3 -15 -2 -41 3 -57 7 -25 8 -20 9 29 1 62 -3 73 -12 28z"/>
<path d="M4856 502 c-13 -22 33 -142 54 -142 11 0 50 -32 85 -69 20 -20 25
-22 38 -10 16 15 17 15 -89 134 -29 33 -60 69 -67 79 -9 13 -16 15 -21 8z m58
-88 c3 -8 2 -12 -4 -9 -6 3 -10 10 -10 16 0 14 7 11 14 -7z"/>
<path d="M3232 470 c4 -33 47 -55 67 -35 20 20 6 49 -21 42 -12 -4 -28 -1 -36
5 -11 10 -13 8 -10 -12z"/>
<path d="M4590 474 c-21 -6 -53 -113 -44 -150 4 -16 18 -46 31 -66 12 -21 23
-43 23 -49 0 -6 8 -9 18 -7 20 4 30 74 13 91 -14 14 -14 64 0 73 7 4 20 -4 30
-17 l19 -24 0 51 c0 77 -33 113 -90 98z"/>
<path d="M5994 469 c-10 -17 28 -61 62 -72 16 -6 41 -18 56 -29 l27 -18 -3 43
c-4 55 -21 87 -47 87 -16 0 -19 -4 -14 -20 3 -11 3 -20 -2 -20 -5 0 -16 9 -26
20 -19 22 -42 26 -53 9z"/>
<path d="M3956 445 c-3 -9 -6 -28 -6 -41 0 -24 1 -24 22 -10 29 21 38 20 38
-3 0 -19 -22 -34 -50 -35 -19 -1 -24 -34 -11 -69 9 -24 13 -26 36 -15 14 6 25
18 25 25 0 8 6 13 13 11 6 -3 14 -27 17 -54 4 -42 8 -49 29 -52 20 -2 23 1 18
20 -5 21 -5 21 7 6 14 -19 41 -127 33 -134 -2 -3 -17 1 -31 8 -35 15 -47 -1
-44 -57 l3 -40 123 -3 c119 -3 123 -2 113 17 -18 32 -4 50 35 45 31 -3 34 -1
34 21 0 26 -56 121 -85 145 -14 12 -18 12 -25 0 -7 -11 -12 -11 -23 -2 -7 7
-17 9 -20 5 -4 -3 -15 1 -25 10 -17 15 -18 15 -20 -9 -5 -58 -37 -61 -52 -4
-5 22 -15 58 -20 79 -6 22 -20 46 -34 54 -14 10 -26 30 -30 51 -4 21 -13 36
-21 36 -7 0 -20 3 -28 6 -8 3 -17 -2 -21 -11z"/>
<path d="M6560 441 c0 -19 36 -58 45 -49 9 8 -16 56 -31 62 -9 3 -14 -2 -14
-13z"/>
<path d="M3706 437 c-28 -21 -38 -93 -20 -149 17 -53 38 -62 66 -29 28 33 38
58 37 93 l-1 33 -9 -33 c-16 -55 -93 -67 -87 -13 2 21 9 27 37 29 31 3 33 5
27 34 -3 17 -6 34 -6 39 0 13 -24 11 -44 -4z"/>
<path d="M3540 405 c0 -30 26 -85 40 -85 20 0 11 72 -12 91 -27 24 -28 24 -28
-6z"/>
<path d="M4822 403 c18 -40 39 -76 59 -95 13 -13 20 -14 28 -5 18 22 -59 127
-93 127 -3 0 0 -12 6 -27z"/>
<path d="M3018 388 c-12 -12 -18 -33 -18 -63 0 -49 6 -55 26 -28 12 17 14 17
43 -4 28 -21 30 -22 36 -4 8 26 -3 52 -39 86 -30 29 -32 29 -48 13z"/>
<path d="M3400 380 c0 -28 2 -30 35 -27 19 1 35 4 35 7 0 9 -20 35 -20 27 0
-5 -7 -1 -16 7 -23 24 -34 19 -34 -14z"/>
<path d="M6636 395 c-16 -12 -17 -17 -6 -30 7 -8 21 -15 32 -15 15 0 18 3 10
13 -5 6 -11 20 -13 29 -4 15 -6 15 -23 3z"/>
<path d="M2738 381 c-18 -21 -14 -62 10 -99 8 -13 22 -38 31 -55 20 -40 59
-44 77 -9 14 28 9 53 -16 79 -10 11 -29 38 -44 61 -30 47 -35 50 -58 23z"/>
<path d="M4383 387 c-4 -7 -16 -16 -25 -20 -13 -4 -18 -17 -18 -42 0 -33 14
-48 22 -24 6 17 58 -11 58 -31 0 -10 -7 -23 -16 -30 -17 -15 -15 -61 3 -67 7
-3 19 12 27 31 8 20 20 36 25 36 7 0 11 23 11 55 0 43 -3 55 -15 55 -9 0 -20
10 -25 23 -5 12 -9 18 -9 13 -1 -5 -7 -3 -15 3 -11 9 -16 9 -23 -2z"/>
<path d="M3870 356 c0 -18 7 -39 15 -46 13 -10 15 -9 15 11 0 13 3 34 6 47 5
18 2 22 -15 22 -17 0 -21 -6 -21 -34z"/>
<path d="M6747 367 c-4 -10 2 -13 19 -9 13 2 21 8 18 13 -8 14 -31 11 -37 -4z"/>
<path d="M3187 336 c-3 -8 -1 -31 5 -52 8 -31 12 -35 20 -21 21 39 58 10 37
-29 -9 -18 -10 -27 -1 -36 19 -19 39 -1 44 39 7 53 2 65 -37 91 -40 25 -61 28
-68 8z"/>
<path d="M6200 333 c0 -11 11 -29 23 -42 31 -28 57 -19 57 20 0 24 -4 29 -24
29 -13 0 -31 3 -40 6 -11 4 -16 0 -16 -13z"/>
<path d="M6960 326 c0 -14 29 -31 38 -21 6 6 -18 35 -29 35 -5 0 -9 -6 -9 -14z"/>
<path d="M3405 300 c23 -73 77 -96 83 -35 2 25 -1 31 -18 31 -11 0 -20 -5 -20
-10 0 -5 -12 1 -26 15 l-26 24 7 -25z"/>
<path d="M5318 313 c7 -3 24 -23 38 -44 25 -40 64 -54 64 -23 0 26 -59 74 -89
73 -14 0 -20 -3 -13 -6z"/>
<path d="M5990 311 c0 -6 4 -13 10 -16 6 -3 7 1 4 9 -7 18 -14 21 -14 7z"/>
<path d="M6067 302 c-9 -10 -17 -23 -17 -29 0 -15 34 -43 52 -43 8 0 32 -11
52 -25 l36 -25 -6 28 c-6 26 -24 63 -41 89 -16 22 -58 25 -76 5z"/>
<path d="M2611 297 c-16 -16 -14 -63 4 -98 l16 -30 25 20 c14 11 32 17 40 14
22 -8 18 53 -6 77 -11 11 -23 20 -27 21 -5 0 -15 2 -25 4 -9 2 -21 -2 -27 -8z"/>
<path d="M6615 301 c-3 -5 -1 -12 5 -16 16 -10 12 -38 -5 -31 -19 7 -19 -4 -1
-29 9 -13 29 -19 70 -22 49 -2 56 0 56 15 0 22 -32 53 -77 76 -37 19 -40 19
-48 7z"/>
<path d="M4747 294 c-4 -4 -7 -16 -7 -27 0 -10 -9 -21 -19 -24 -18 -5 -19 -12
-14 -76 4 -55 10 -76 25 -90 20 -17 21 -16 44 6 12 12 26 35 29 50 4 15 11 30
16 33 5 3 9 16 9 30 0 27 -70 110 -83 98z m43 -101 c0 -14 -15 -29 -32 -36
-13 -5 -18 -1 -18 13 0 16 12 24 43 29 4 0 7 -2 7 -6z"/>
<path d="M4963 235 c-8 -8 -13 -40 -13 -74 0 -65 -7 -94 -21 -85 -5 3 -9 -13
-9 -36 0 -37 2 -41 23 -38 25 3 47 21 47 38 0 6 11 26 25 44 23 31 24 34 10
85 -13 50 -30 81 -44 81 -3 -1 -12 -7 -18 -15z m32 -76 c7 -10 -24 -53 -32
-45 -2 2 -1 15 3 30 6 27 18 33 29 15z"/>
<path d="M3082 220 c0 -14 2 -19 5 -12 2 6 2 18 0 25 -3 6 -5 1 -5 -13z"/>
<path d="M4511 222 c-6 -11 -11 -29 -11 -39 0 -19 33 -46 44 -36 11 11 6 59
-8 78 -13 18 -14 18 -25 -3z"/>
<path d="M6220 220 c6 -11 10 -26 9 -33 -3 -28 2 -48 19 -65 17 -18 50 -63 67
-91 6 -11 4 -13 -9 -8 -12 5 -16 3 -14 -5 6 -19 158 -24 158 -6 0 16 39 42 48
33 4 -4 -2 -13 -12 -21 -25 -18 -14 -29 14 -14 16 9 25 9 33 1 13 -13 57 -15
57 -2 0 5 13 14 29 20 15 7 33 23 40 37 9 21 7 31 -14 64 -27 42 -29 43 -60
31 -11 -5 -25 -4 -33 2 -17 13 -29 0 -14 -15 7 -7 12 -16 12 -20 0 -15 -29 -8
-42 10 -7 9 -30 30 -51 46 -37 27 -40 28 -85 16 -54 -15 -82 -36 -82 -61 0
-31 -19 -31 -35 0 -8 17 -15 32 -15 35 0 2 18 7 40 11 31 5 40 11 40 26 0 24
-29 37 -41 18 -7 -11 -12 -12 -29 -1 -30 19 -43 16 -30 -8z m210 -100 c0 -5
-4 -10 -10 -10 -5 0 -10 5 -10 10 0 6 5 10 10 10 6 0 10 -4 10 -10z"/>
<path d="M4860 205 c-7 -19 -5 -33 11 -60 24 -40 34 -39 43 6 11 55 -36 102
-54 54z"/>
<path d="M6961 191 c-7 -5 -10 -14 -7 -20 13 -21 -5 -33 -24 -16 -15 14 -22
14 -38 4 -17 -10 -25 -10 -46 4 -14 9 -34 17 -45 17 -20 0 -19 -2 4 -36 14
-20 25 -40 25 -44 0 -4 32 -6 70 -4 l70 4 0 -30 c0 -31 18 -50 30 -31 4 7 5
23 3 36 -3 12 0 33 7 44 25 49 -8 98 -49 72z"/>
<path d="M5400 181 c0 -5 5 -13 10 -16 6 -3 10 -2 10 4 0 5 -4 13 -10 16 -5 3
-10 2 -10 -4z"/>
<path d="M6650 178 c0 -7 9 -26 20 -43 14 -21 20 -25 20 -12 0 22 29 22 37 1
4 -10 -1 -22 -11 -30 -17 -12 -17 -14 4 -44 12 -16 25 -28 29 -25 14 8 21 75
11 100 -8 21 -70 65 -70 50 0 -3 -9 -1 -20 5 -15 8 -20 8 -20 -2z"/>
<path d="M3908 159 c-15 -16 -17 -29 -10 -86 l7 -68 44 0 c41 0 45 2 53 30 17
61 -15 146 -56 144 -11 0 -29 -9 -38 -20z m63 -66 c5 -13 3 -28 -6 -40 -17
-22 -30 -11 -40 35 -6 31 -5 33 15 30 13 -2 26 -13 31 -25z"/>
<path d="M3760 136 c0 -31 14 -40 30 -21 10 12 10 18 0 30 -18 22 -30 18 -30
-9z"/>
<path d="M2760 141 c0 -8 -7 -11 -20 -8 -11 3 -20 2 -20 -3 0 -4 -16 -31 -35
-60 -19 -29 -35 -56 -35 -61 0 -5 16 -9 35 -9 24 0 35 5 35 15 0 10 10 15 30
15 20 0 30 -5 30 -15 0 -11 12 -15 45 -15 29 0 45 4 45 13 0 28 -13 57 -25 57
-7 0 -29 19 -49 43 -20 23 -36 36 -36 28z"/>
<path d="M2962 123 c-12 -13 -19 -29 -16 -35 3 -5 -4 -12 -15 -15 -15 -4 -20
-11 -16 -23 3 -10 1 -21 -5 -25 -20 -12 -10 -25 20 -25 17 0 30 5 30 10 0 13
47 13 55 0 3 -5 17 -10 31 -10 21 0 23 3 14 19 -5 11 -10 30 -10 43 -1 22 -20
51 -50 75 -12 9 -20 7 -38 -14z"/>
<path d="M3590 121 c-13 -25 -13 -51 0 -51 6 0 10 -6 10 -14 0 -8 7 -16 15
-20 20 -7 19 18 -1 35 -10 8 -14 23 -12 41 5 33 2 35 -12 9z"/>
<path d="M4602 121 c-23 -17 -45 -90 -24 -77 7 4 12 1 12 -7 0 -23 31 -30 46
-10 18 23 18 99 1 106 -7 3 -23 -2 -35 -12z"/>
<path d="M5470 121 c5 -11 14 -22 19 -26 6 -3 13 -26 17 -50 5 -38 9 -43 23
-36 10 6 23 5 33 0 13 -7 20 -4 28 11 6 11 15 18 21 15 12 -8 11 -5 -2 33 -9
28 -20 34 -76 52 -79 24 -76 24 -63 1z"/>
<path d="M3135 110 c-11 -18 7 -80 26 -91 16 -8 21 -5 29 16 14 36 13 42 -10
65 -22 22 -36 25 -45 10z"/>
<path d="M5053 105 c-16 -17 -16 -20 -2 -67 11 -42 15 -43 56 -26 15 6 33 12
38 12 15 2 5 47 -16 75 -10 13 -19 18 -19 12 0 -8 -5 -9 -19 -1 -24 12 -23 12
-38 -5z"/>
<path d="M3373 93 c-8 -3 -13 -23 -13 -50 0 -40 2 -44 23 -41 19 3 22 9 22 47
0 44 -8 54 -32 44z"/>
<path d="M4443 76 c-12 -12 -25 -33 -28 -48 -7 -28 -6 -28 40 -28 45 0 47 1
32 18 -8 9 -17 31 -19 48 l-3 31 -22 -21z"/>
<path d="M7075 80 c-7 -11 12 -50 25 -50 16 0 21 19 10 40 -12 22 -25 26 -35
10z"/>
<path d="M4822 63 c-11 -10 -23 -28 -27 -40 -6 -22 -3 -23 39 -23 40 0 46 3
46 21 0 24 -17 59 -29 59 -5 0 -18 -8 -29 -17z"/>
<path d="M6840 25 c0 -14 5 -25 10 -25 6 0 10 11 10 25 0 14 -4 25 -10 25 -5
0 -10 -11 -10 -25z"/>
<path d="M3690 20 c-10 -6 -7 -10 13 -16 34 -8 46 1 20 14 -11 6 -25 7 -33 2z"/>
</g>
</svg>
